<svg width="264" height="151" viewBox="0 0 264 151" fill="none" xmlns="http://www.w3.org/2000/svg">
<mask id="path-1-outside-1_12_2" maskUnits="userSpaceOnUse" x="0.399994" y="-0.992859" width="264" height="152" fill="black">
<rect fill="white" x="0.399994" y="-0.992859" width="264" height="152"/>
<path fill-rule="evenodd" clip-rule="evenodd" d="M166.014 14.1V2.99999C166.014 2.19999 166.264 1.59999 166.764 1.19999C167.264 0.899994 167.914 0.949994 168.714 1.34999L215.964 26.1L259.764 2.39999C260.464 1.99999 261.064 1.94999 261.564 2.24999C262.164 2.64999 262.464 3.24999 262.464 4.04999V14.7C262.464 16.7 261.614 18.1 259.914 18.9L225.114 36.15V36.75L259.914 54C261.614 54.9 262.464 56.2 262.464 57.9V69C262.464 69.8 262.164 70.35 261.564 70.65C260.964 71.05 260.314 71.1 259.614 70.8L215.964 46.8L168.864 71.55C168.064 71.95 167.364 72 166.764 71.7C166.264 71.4 166.014 70.8 166.014 69.9V58.65C166.014 57.05 166.814 55.9 168.414 55.2L205.014 36.75V36.15L168.414 17.7C166.814 17 166.014 15.8 166.014 14.1ZM178.764 110.755V123.805C178.764 131.105 182.464 134.755 189.864 134.755H238.614C246.014 134.755 249.714 131.105 249.714 123.805V110.755C249.714 103.555 246.014 99.9551 238.614 99.9551H189.864C182.464 99.9551 178.764 103.555 178.764 110.755ZM166.014 126.055V108.655C166.014 101.255 168.064 95.5051 172.164 91.4051C176.264 87.4051 181.964 85.4051 189.264 85.4051H239.214C246.614 85.4051 252.314 87.4051 256.314 91.4051C260.414 95.5051 262.464 101.255 262.464 108.655V126.055C262.464 133.455 260.414 139.205 256.314 143.305C252.314 147.405 246.614 149.455 239.214 149.455H189.264C181.964 149.455 176.264 147.405 172.164 143.305C168.064 139.205 166.014 133.455 166.014 126.055ZM24.9 74H18.6C17.4 74 16.8 73.4333 16.8 72.3V19.2C16.8 18.5333 16.4667 18.2 15.8 18.2H3.2C2 18.2 1.4 17.6333 1.4 16.5V11.4C1.4 10.2667 2 9.69999 3.2 9.69999H40.3C41.5 9.69999 42.1 10.2667 42.1 11.4V16.5C42.1 17.6333 41.5 18.2 40.3 18.2H27.7C26.9667 18.2 26.6 18.5333 26.6 19.2V72.3C26.6 73.4333 26.0333 74 24.9 74ZM58.6594 74H52.3594C51.226 74 50.6594 73.4333 50.6594 72.3V11.4C50.6594 10.2667 51.226 9.69999 52.3594 9.69999H58.6594C59.7927 9.69999 60.3594 10.2667 60.3594 11.4V36.4C60.3594 37.0667 60.7594 37.4 61.5594 37.4H82.6594C83.326 37.4 83.6594 37.0667 83.6594 36.4V11.4C83.6594 10.2667 84.226 9.69999 85.3594 9.69999H91.7594C92.8927 9.69999 93.4594 10.2667 93.4594 11.4V72.3C93.4594 73.4333 92.8927 74 91.7594 74H85.3594C84.226 74 83.6594 73.4333 83.6594 72.3V47C83.6594 46.3333 83.326 46 82.6594 46H61.5594C60.7594 46 60.3594 46.3333 60.3594 47V72.3C60.3594 73.4333 59.7927 74 58.6594 74ZM141.781 74H109.781C108.648 74 108.081 73.4333 108.081 72.3V11.4C108.081 10.2667 108.648 9.69999 109.781 9.69999H141.781C142.848 9.69999 143.381 10.2667 143.381 11.4V16.5C143.381 17.6333 142.848 18.2 141.781 18.2H118.981C118.181 18.2 117.781 18.5333 117.781 19.2V36.1C117.781 36.7667 118.181 37.1 118.981 37.1H138.281C139.481 37.1 140.081 37.6667 140.081 38.8V43.9C140.081 45.0333 139.481 45.6 138.281 45.6H118.981C118.181 45.6 117.781 45.9333 117.781 46.6V64.4C117.781 65.1333 118.181 65.5 118.981 65.5H141.781C142.848 65.5 143.381 66.0667 143.381 67.2V72.3C143.381 73.4333 142.848 74 141.781 74ZM15.26 139H22.75C26.1567 139 28.8167 138.043 30.73 136.13C32.6433 134.217 33.6 131.557 33.6 128.15V116.39C33.6 115.41 33.11 114.92 32.13 114.92H20.37C19.5767 114.92 19.18 115.317 19.18 116.11V119.68C19.18 120.473 19.5767 120.87 20.37 120.87H26.04C26.5533 120.87 26.81 121.103 26.81 121.57V127.87C26.81 131.323 25.13 133.05 21.77 133.05H16.24C12.88 133.05 11.2 131.323 11.2 127.87V105.12C11.2 101.667 12.88 99.94 16.24 99.94H21.77C25.13 99.94 26.81 101.667 26.81 105.12V107.36C26.81 108.2 27.2067 108.62 28 108.62H32.41C33.2033 108.62 33.6 108.2 33.6 107.36V104.84C33.6 101.387 32.6433 98.7267 30.73 96.86C28.8633 94.9467 26.2033 93.99 22.75 93.99H15.26C11.8067 93.99 9.12333 94.9467 7.21 96.86C5.34333 98.7267 4.41 101.387 4.41 104.84V128.15C4.41 131.557 5.34333 134.217 7.21 136.13C9.12333 138.043 11.8067 139 15.26 139ZM40.5278 139H45.5678C46.2211 139 46.6411 138.603 46.8278 137.81L49.4878 128.71H64.8878L67.5478 137.81C67.6411 138.277 67.7578 138.603 67.8978 138.79C68.0845 138.93 68.3878 139 68.8078 139H73.7778C74.4778 139 74.7345 138.603 74.5478 137.81L62.3678 95.18C62.1811 94.3867 61.6211 93.99 60.6878 93.99H53.6878C52.8011 93.99 52.2411 94.3867 52.0078 95.18L39.8278 137.81C39.6411 138.603 39.8745 139 40.5278 139ZM50.8878 123.11L57.0478 100.71H57.3278L63.5578 123.11H50.8878ZM120.107 93.99H112.267C111.661 93.99 111.311 94.2467 111.217 94.76L101.557 121.78H101.207L91.6174 94.76C91.3841 94.2467 91.0108 93.99 90.4974 93.99H82.6574C81.8641 93.99 81.4674 94.3867 81.4674 95.18V137.81C81.4674 138.603 81.8641 139 82.6574 139H86.9274C87.3941 139 87.6974 138.93 87.8374 138.79C88.0241 138.603 88.1174 138.277 88.1174 137.81V102.39H88.3974L97.7074 128.08C97.9874 128.827 98.4774 129.2 99.1774 129.2H103.657C104.404 129.2 104.917 128.827 105.197 128.08L114.297 102.46H114.577V137.81C114.577 138.603 114.974 139 115.767 139H120.107C120.901 139 121.297 138.603 121.297 137.81V95.18C121.297 94.3867 120.901 93.99 120.107 93.99ZM132.696 139H155.096C155.843 139 156.216 138.603 156.216 137.81V134.24C156.216 133.447 155.843 133.05 155.096 133.05H139.136C138.576 133.05 138.296 132.793 138.296 132.28V119.82C138.296 119.353 138.576 119.12 139.136 119.12H152.646C153.486 119.12 153.906 118.723 153.906 117.93V114.36C153.906 113.567 153.486 113.17 152.646 113.17H139.136C138.576 113.17 138.296 112.937 138.296 112.47V100.64C138.296 100.173 138.576 99.94 139.136 99.94H155.096C155.843 99.94 156.216 99.5433 156.216 98.75V95.18C156.216 94.3867 155.843 93.99 155.096 93.99H132.696C131.903 93.99 131.506 94.3867 131.506 95.18V137.81C131.506 138.603 131.903 139 132.696 139Z"/>
</mask>
<path fill-rule="evenodd" clip-rule="evenodd" d="M166.014 14.1V2.99999C166.014 2.19999 166.264 1.59999 166.764 1.19999C167.264 0.899994 167.914 0.949994 168.714 1.34999L215.964 26.1L259.764 2.39999C260.464 1.99999 261.064 1.94999 261.564 2.24999C262.164 2.64999 262.464 3.24999 262.464 4.04999V14.7C262.464 16.7 261.614 18.1 259.914 18.9L225.114 36.15V36.75L259.914 54C261.614 54.9 262.464 56.2 262.464 57.9V69C262.464 69.8 262.164 70.35 261.564 70.65C260.964 71.05 260.314 71.1 259.614 70.8L215.964 46.8L168.864 71.55C168.064 71.95 167.364 72 166.764 71.7C166.264 71.4 166.014 70.8 166.014 69.9V58.65C166.014 57.05 166.814 55.9 168.414 55.2L205.014 36.75V36.15L168.414 17.7C166.814 17 166.014 15.8 166.014 14.1ZM178.764 110.755V123.805C178.764 131.105 182.464 134.755 189.864 134.755H238.614C246.014 134.755 249.714 131.105 249.714 123.805V110.755C249.714 103.555 246.014 99.9551 238.614 99.9551H189.864C182.464 99.9551 178.764 103.555 178.764 110.755ZM166.014 126.055V108.655C166.014 101.255 168.064 95.5051 172.164 91.4051C176.264 87.4051 181.964 85.4051 189.264 85.4051H239.214C246.614 85.4051 252.314 87.4051 256.314 91.4051C260.414 95.5051 262.464 101.255 262.464 108.655V126.055C262.464 133.455 260.414 139.205 256.314 143.305C252.314 147.405 246.614 149.455 239.214 149.455H189.264C181.964 149.455 176.264 147.405 172.164 143.305C168.064 139.205 166.014 133.455 166.014 126.055ZM24.9 74H18.6C17.4 74 16.8 73.4333 16.8 72.3V19.2C16.8 18.5333 16.4667 18.2 15.8 18.2H3.2C2 18.2 1.4 17.6333 1.4 16.5V11.4C1.4 10.2667 2 9.69999 3.2 9.69999H40.3C41.5 9.69999 42.1 10.2667 42.1 11.4V16.5C42.1 17.6333 41.5 18.2 40.3 18.2H27.7C26.9667 18.2 26.6 18.5333 26.6 19.2V72.3C26.6 73.4333 26.0333 74 24.9 74ZM58.6594 74H52.3594C51.226 74 50.6594 73.4333 50.6594 72.3V11.4C50.6594 10.2667 51.226 9.69999 52.3594 9.69999H58.6594C59.7927 9.69999 60.3594 10.2667 60.3594 11.4V36.4C60.3594 37.0667 60.7594 37.4 61.5594 37.4H82.6594C83.326 37.4 83.6594 37.0667 83.6594 36.4V11.4C83.6594 10.2667 84.226 9.69999 85.3594 9.69999H91.7594C92.8927 9.69999 93.4594 10.2667 93.4594 11.4V72.3C93.4594 73.4333 92.8927 74 91.7594 74H85.3594C84.226 74 83.6594 73.4333 83.6594 72.3V47C83.6594 46.3333 83.326 46 82.6594 46H61.5594C60.7594 46 60.3594 46.3333 60.3594 47V72.3C60.3594 73.4333 59.7927 74 58.6594 74ZM141.781 74H109.781C108.648 74 108.081 73.4333 108.081 72.3V11.4C108.081 10.2667 108.648 9.69999 109.781 9.69999H141.781C142.848 9.69999 143.381 10.2667 143.381 11.4V16.5C143.381 17.6333 142.848 18.2 141.781 18.2H118.981C118.181 18.2 117.781 18.5333 117.781 19.2V36.1C117.781 36.7667 118.181 37.1 118.981 37.1H138.281C139.481 37.1 140.081 37.6667 140.081 38.8V43.9C140.081 45.0333 139.481 45.6 138.281 45.6H118.981C118.181 45.6 117.781 45.9333 117.781 46.6V64.4C117.781 65.1333 118.181 65.5 118.981 65.5H141.781C142.848 65.5 143.381 66.0667 143.381 67.2V72.3C143.381 73.4333 142.848 74 141.781 74ZM15.26 139H22.75C26.1567 139 28.8167 138.043 30.73 136.13C32.6433 134.217 33.6 131.557 33.6 128.15V116.39C33.6 115.41 33.11 114.92 32.13 114.92H20.37C19.5767 114.92 19.18 115.317 19.18 116.11V119.68C19.18 120.473 19.5767 120.87 20.37 120.87H26.04C26.5533 120.87 26.81 121.103 26.81 121.57V127.87C26.81 131.323 25.13 133.05 21.77 133.05H16.24C12.88 133.05 11.2 131.323 11.2 127.87V105.12C11.2 101.667 12.88 99.94 16.24 99.94H21.77C25.13 99.94 26.81 101.667 26.81 105.12V107.36C26.81 108.2 27.2067 108.62 28 108.62H32.41C33.2033 108.62 33.6 108.2 33.6 107.36V104.84C33.6 101.387 32.6433 98.7267 30.73 96.86C28.8633 94.9467 26.2033 93.99 22.75 93.99H15.26C11.8067 93.99 9.12333 94.9467 7.21 96.86C5.34333 98.7267 4.41 101.387 4.41 104.84V128.15C4.41 131.557 5.34333 134.217 7.21 136.13C9.12333 138.043 11.8067 139 15.26 139ZM40.5278 139H45.5678C46.2211 139 46.6411 138.603 46.8278 137.81L49.4878 128.71H64.8878L67.5478 137.81C67.6411 138.277 67.7578 138.603 67.8978 138.79C68.0845 138.93 68.3878 139 68.8078 139H73.7778C74.4778 139 74.7345 138.603 74.5478 137.81L62.3678 95.18C62.1811 94.3867 61.6211 93.99 60.6878 93.99H53.6878C52.8011 93.99 52.2411 94.3867 52.0078 95.18L39.8278 137.81C39.6411 138.603 39.8745 139 40.5278 139ZM50.8878 123.11L57.0478 100.71H57.3278L63.5578 123.11H50.8878ZM120.107 93.99H112.267C111.661 93.99 111.311 94.2467 111.217 94.76L101.557 121.78H101.207L91.6174 94.76C91.3841 94.2467 91.0108 93.99 90.4974 93.99H82.6574C81.8641 93.99 81.4674 94.3867 81.4674 95.18V137.81C81.4674 138.603 81.8641 139 82.6574 139H86.9274C87.3941 139 87.6974 138.93 87.8374 138.79C88.0241 138.603 88.1174 138.277 88.1174 137.81V102.39H88.3974L97.7074 128.08C97.9874 128.827 98.4774 129.2 99.1774 129.2H103.657C104.404 129.2 104.917 128.827 105.197 128.08L114.297 102.46H114.577V137.81C114.577 138.603 114.974 139 115.767 139H120.107C120.901 139 121.297 138.603 121.297 137.81V95.18C121.297 94.3867 120.901 93.99 120.107 93.99ZM132.696 139H155.096C155.843 139 156.216 138.603 156.216 137.81V134.24C156.216 133.447 155.843 133.05 155.096 133.05H139.136C138.576 133.05 138.296 132.793 138.296 132.28V119.82C138.296 119.353 138.576 119.12 139.136 119.12H152.646C153.486 119.12 153.906 118.723 153.906 117.93V114.36C153.906 113.567 153.486 113.17 152.646 113.17H139.136C138.576 113.17 138.296 112.937 138.296 112.47V100.64C138.296 100.173 138.576 99.94 139.136 99.94H155.096C155.843 99.94 156.216 99.5433 156.216 98.75V95.18C156.216 94.3867 155.843 93.99 155.096 93.99H132.696C131.903 93.99 131.506 94.3867 131.506 95.18V137.81C131.506 138.603 131.903 139 132.696 139Z" fill="white"/>
<path d="M166.764 1.19999L166.249 0.342502L166.192 0.377107L166.139 0.419126L166.764 1.19999ZM168.714 1.34999L169.178 0.464163L169.17 0.459786L169.161 0.455567L168.714 1.34999ZM215.964 26.1L215.5 26.9858L215.971 27.2329L216.44 26.9795L215.964 26.1ZM259.764 2.39999L260.24 3.2795L260.25 3.27399L260.26 3.26824L259.764 2.39999ZM261.564 2.24999L262.119 1.41795L262.099 1.40475L262.078 1.3925L261.564 2.24999ZM259.914 18.9L259.488 17.9952L259.479 17.9995L259.47 18.004L259.914 18.9ZM225.114 36.15L224.67 35.254L224.114 35.5296V36.15H225.114ZM225.114 36.75H224.114V37.3704L224.67 37.646L225.114 36.75ZM259.914 54L260.382 53.1162L260.37 53.11L260.358 53.104L259.914 54ZM261.564 70.65L261.117 69.7556L261.061 69.7834L261.009 69.8179L261.564 70.65ZM259.614 70.8L259.132 71.6763L259.175 71.6999L259.22 71.7191L259.614 70.8ZM215.964 46.8L216.446 45.9237L215.975 45.6647L215.499 45.9148L215.964 46.8ZM168.864 71.55L169.311 72.4444L169.32 72.4399L169.329 72.4352L168.864 71.55ZM166.764 71.7L166.249 72.5575L166.282 72.5773L166.317 72.5944L166.764 71.7ZM168.414 55.2L168.815 56.1162L168.84 56.1052L168.864 56.093L168.414 55.2ZM205.014 36.75L205.464 37.643L206.014 37.3658V36.75H205.014ZM205.014 36.15H206.014V35.5342L205.464 35.257L205.014 36.15ZM168.414 17.7L168.864 16.807L168.84 16.7948L168.815 16.7838L168.414 17.7ZM172.164 91.4051L171.465 90.6892L171.457 90.698L172.164 91.4051ZM256.314 91.4051L257.021 90.698L257.021 90.698L256.314 91.4051ZM256.314 143.305L255.607 142.598L255.598 142.607L256.314 143.305ZM172.164 143.305L171.457 144.012L171.457 144.012L172.164 143.305ZM30.73 96.86L30.0142 97.5583L30.0228 97.5671L30.0317 97.5758L30.73 96.86ZM7.21 96.86L6.50289 96.1529L6.50289 96.1529L7.21 96.86ZM7.21 136.13L6.49416 136.828L6.50289 136.837L7.21 136.13ZM46.8278 137.81L45.868 137.529L45.8605 137.555L45.8544 137.581L46.8278 137.81ZM49.4878 128.71V127.71H48.7383L48.528 128.429L49.4878 128.71ZM64.8878 128.71L65.8476 128.429L65.6374 127.71H64.8878V128.71ZM67.5478 137.81L68.5284 137.614L68.5199 137.571L68.5076 137.529L67.5478 137.81ZM67.8978 138.79L67.0978 139.39L67.1835 139.504L67.2978 139.59L67.8978 138.79ZM74.5478 137.81L75.5212 137.581L75.5158 137.558L75.5093 137.535L74.5478 137.81ZM62.3678 95.18L61.3944 95.409L61.3998 95.432L61.4063 95.4547L62.3678 95.18ZM52.0078 95.18L51.0484 94.8978L51.0463 94.9053L52.0078 95.18ZM39.8278 137.81L38.8663 137.535L38.8598 137.558L38.8544 137.581L39.8278 137.81ZM57.0478 100.71V99.71H56.2857L56.0836 100.445L57.0478 100.71ZM50.8878 123.11L49.9236 122.845L49.5757 124.11H50.8878V123.11ZM57.3278 100.71L58.2912 100.442L58.0876 99.71H57.3278V100.71ZM63.5578 123.11V124.11H64.8739L64.5212 122.842L63.5578 123.11ZM111.217 94.76L112.159 95.0966L112.187 95.0195L112.201 94.9389L111.217 94.76ZM101.557 121.78V122.78H102.262L102.499 122.117L101.557 121.78ZM101.207 121.78L100.265 122.114L100.501 122.78H101.207V121.78ZM91.6174 94.76L92.5598 94.4255L92.5455 94.3852L92.5278 94.3462L91.6174 94.76ZM88.1174 102.39V101.39H87.1174V102.39H88.1174ZM88.3974 102.39L89.3376 102.049L89.0987 101.39H88.3974V102.39ZM97.7074 128.08L96.7672 128.421L96.7711 128.431L97.7074 128.08ZM105.197 128.08L106.134 128.431L106.137 128.423L106.14 128.415L105.197 128.08ZM114.297 102.46V101.46H113.591L113.355 102.125L114.297 102.46ZM114.577 102.46H115.577V101.46H114.577V102.46ZM165.014 2.99999V14.1H167.014V2.99999H165.014ZM166.139 0.419126C165.344 1.05535 165.014 1.97929 165.014 2.99999H167.014C167.014 2.4207 167.184 2.14464 167.389 1.98086L166.139 0.419126ZM169.161 0.455567C168.228 -0.0109678 167.177 -0.213882 166.249 0.342502L167.278 2.05749C167.351 2.01387 167.6 1.91096 168.267 2.24442L169.161 0.455567ZM216.428 25.2142L169.178 0.464163L168.25 2.23583L215.5 26.9858L216.428 25.2142ZM259.288 1.52049L215.488 25.2205L216.44 26.9795L260.24 3.2795L259.288 1.52049ZM262.078 1.3925C261.154 0.837937 260.146 1.02984 259.268 1.53175L260.26 3.26824C260.782 2.97015 260.974 3.06205 261.049 3.10749L262.078 1.3925ZM263.464 4.04999C263.464 2.95867 263.031 2.02608 262.119 1.41795L261.009 3.08203C261.297 3.27391 261.464 3.54132 261.464 4.04999H263.464ZM263.464 14.7V4.04999H261.464V14.7H263.464ZM260.34 19.8048C261.341 19.3338 262.14 18.6607 262.681 17.769C263.22 16.8812 263.464 15.8425 263.464 14.7H261.464C261.464 15.5574 261.283 16.2188 260.972 16.731C260.663 17.2393 260.187 17.6662 259.488 17.9952L260.34 19.8048ZM225.558 37.046L260.358 19.796L259.47 18.004L224.67 35.254L225.558 37.046ZM226.114 36.75V36.15H224.114V36.75H226.114ZM260.358 53.104L225.558 35.854L224.67 37.646L259.47 54.896L260.358 53.104ZM263.464 57.9C263.464 56.8747 263.205 55.9307 262.663 55.1027C262.126 54.2812 261.346 53.6267 260.382 53.1162L259.446 54.8838C260.182 55.2733 260.677 55.7188 260.989 56.1972C261.298 56.6693 261.464 57.2253 261.464 57.9H263.464ZM263.464 69V57.9H261.464V69H263.464ZM262.011 71.5444C262.48 71.3099 262.862 70.9585 263.117 70.4914C263.366 70.0343 263.464 69.5221 263.464 69H261.464C261.464 69.2779 261.412 69.4407 261.361 69.5336C261.316 69.6165 261.248 69.6901 261.117 69.7556L262.011 71.5444ZM259.22 71.7191C260.21 72.1433 261.219 72.0818 262.119 71.4821L261.009 69.8179C260.709 70.0182 260.418 70.0567 260.008 69.8808L259.22 71.7191ZM215.482 47.6763L259.132 71.6763L260.096 69.9237L216.446 45.9237L215.482 47.6763ZM169.329 72.4352L216.429 47.6852L215.499 45.9148L168.399 70.6648L169.329 72.4352ZM166.317 72.5944C167.286 73.0793 168.331 72.9343 169.311 72.4444L168.417 70.6556C167.796 70.9657 167.441 70.9207 167.211 70.8056L166.317 72.5944ZM165.014 69.9C165.014 70.9476 165.307 71.9922 166.249 72.5575L167.278 70.8425C167.221 70.8078 167.014 70.6524 167.014 69.9H165.014ZM165.014 58.65V69.9H167.014V58.65H165.014ZM168.013 54.2838C167.085 54.6897 166.322 55.2565 165.793 56.0164C165.26 56.7821 165.014 57.6759 165.014 58.65H167.014C167.014 58.0241 167.167 57.5429 167.435 57.1586C167.706 56.7685 168.142 56.4103 168.815 56.1162L168.013 54.2838ZM204.564 35.857L167.964 54.307L168.864 56.093L205.464 37.643L204.564 35.857ZM204.014 36.15V36.75H206.014V36.15H204.014ZM167.964 18.593L204.564 37.043L205.464 35.257L168.864 16.807L167.964 18.593ZM165.014 14.1C165.014 15.1114 165.254 16.0378 165.782 16.8297C166.309 17.6198 167.075 18.2057 168.013 18.6162L168.815 16.7838C168.153 16.4943 167.719 16.1302 167.446 15.7203C167.174 15.3122 167.014 14.7886 167.014 14.1H165.014ZM179.764 123.805V110.755H177.764V123.805H179.764ZM189.864 133.755C186.315 133.755 183.837 132.88 182.241 131.306C180.648 129.734 179.764 127.297 179.764 123.805H177.764C177.764 127.613 178.73 130.651 180.837 132.729C182.941 134.805 186.013 135.755 189.864 135.755V133.755ZM238.614 133.755H189.864V135.755H238.614V133.755ZM248.714 123.805C248.714 127.297 247.83 129.734 246.237 131.306C244.641 132.88 242.163 133.755 238.614 133.755V135.755C242.465 135.755 245.537 134.805 247.641 132.729C249.748 130.651 250.714 127.613 250.714 123.805H248.714ZM248.714 110.755V123.805H250.714V110.755H248.714ZM238.614 100.955C242.166 100.955 244.646 101.819 246.241 103.372C247.832 104.919 248.714 107.316 248.714 110.755H250.714C250.714 106.994 249.746 103.991 247.636 101.938C245.532 99.8907 242.461 98.9551 238.614 98.9551V100.955ZM189.864 100.955H238.614V98.9551H189.864V100.955ZM179.764 110.755C179.764 107.316 180.646 104.919 182.236 103.372C183.832 101.819 186.311 100.955 189.864 100.955V98.9551C186.016 98.9551 182.946 99.8907 180.841 101.938C178.732 103.991 177.764 106.994 177.764 110.755H179.764ZM165.014 108.655V126.055H167.014V108.655H165.014ZM171.457 90.698C167.121 95.0336 165.014 101.067 165.014 108.655H167.014C167.014 101.443 169.007 95.9765 172.871 92.1122L171.457 90.698ZM189.264 84.4051C181.778 84.4051 175.8 86.4607 171.466 90.6893L172.862 92.1209C176.728 88.3494 182.15 86.4051 189.264 86.4051V84.4051ZM239.214 84.4051H189.264V86.4051H239.214V84.4051ZM257.021 90.698C252.781 86.4578 246.794 84.4051 239.214 84.4051V86.4051C246.434 86.4051 251.847 88.3523 255.607 92.1122L257.021 90.698ZM263.464 108.655C263.464 101.067 261.357 95.0336 257.021 90.698L255.607 92.1122C259.471 95.9765 261.464 101.443 261.464 108.655H263.464ZM263.464 126.055V108.655H261.464V126.055H263.464ZM257.021 144.012C261.357 139.677 263.464 133.643 263.464 126.055H261.464C261.464 133.267 259.471 138.734 255.607 142.598L257.021 144.012ZM239.214 150.455C246.801 150.455 252.791 148.348 257.03 144.003L255.598 142.607C251.837 146.462 246.427 148.455 239.214 148.455V150.455ZM189.264 150.455H239.214V148.455H189.264V150.455ZM171.457 144.012C175.79 148.345 181.771 150.455 189.264 150.455V148.455C182.157 148.455 176.738 146.465 172.871 142.598L171.457 144.012ZM165.014 126.055C165.014 133.643 167.121 139.677 171.457 144.012L172.871 142.598C169.007 138.734 167.014 133.267 167.014 126.055H165.014ZM18.6 75H24.9V73H18.6V75ZM15.8 72.3C15.8 73.0359 15.9976 73.7676 16.5634 74.302C17.1185 74.8263 17.8597 75 18.6 75V73C18.1404 73 17.9815 72.8904 17.9366 72.848C17.9024 72.8157 17.8 72.6974 17.8 72.3H15.8ZM15.8 19.2V72.3H17.8V19.2H15.8ZM15.8 19.2C15.8421 19.2 15.8725 19.2026 15.893 19.2056C15.9133 19.2085 15.9219 19.2114 15.9213 19.2112C15.9203 19.2109 15.9104 19.2074 15.8949 19.1981C15.8872 19.1935 15.8787 19.1878 15.8697 19.1807C15.8606 19.1737 15.8516 19.1658 15.8429 19.1571C15.8342 19.1484 15.8263 19.1394 15.8192 19.1303C15.8122 19.1213 15.8065 19.1128 15.8019 19.1051C15.7926 19.0896 15.7891 19.0796 15.7888 19.0787C15.7886 19.0781 15.7915 19.0867 15.7944 19.107C15.7973 19.1275 15.8 19.1579 15.8 19.2H17.8C17.8 18.7125 17.6775 18.1632 17.2571 17.7429C16.8368 17.3225 16.2875 17.2 15.8 17.2V19.2ZM3.2 19.2H15.8V17.2H3.2V19.2ZM0.4 16.5C0.4 17.2359 0.597567 17.9676 1.16338 18.502C1.71846 19.0263 2.45965 19.2 3.2 19.2V17.2C2.74035 17.2 2.58154 17.0904 2.53662 17.048C2.50243 17.0157 2.4 16.8974 2.4 16.5H0.4ZM0.4 11.4V16.5H2.4V11.4H0.4ZM3.2 8.69999C2.45965 8.69999 1.71846 8.87373 1.16338 9.39798C0.597567 9.93235 0.4 10.6641 0.4 11.4H2.4C2.4 11.0025 2.50243 10.8843 2.53662 10.852C2.58154 10.8096 2.74035 10.7 3.2 10.7V8.69999ZM40.3 8.69999H3.2V10.7H40.3V8.69999ZM43.1 11.4C43.1 10.6641 42.9024 9.93235 42.3366 9.39798C41.7815 8.87373 41.0404 8.69999 40.3 8.69999V10.7C40.7597 10.7 40.9185 10.8096 40.9634 10.852C40.9976 10.8843 41.1 11.0025 41.1 11.4H43.1ZM43.1 16.5V11.4H41.1V16.5H43.1ZM40.3 19.2C41.0404 19.2 41.7815 19.0263 42.3366 18.502C42.9024 17.9676 43.1 17.2359 43.1 16.5H41.1C41.1 16.8974 40.9976 17.0157 40.9634 17.048C40.9185 17.0904 40.7597 17.2 40.3 17.2V19.2ZM27.7 19.2H40.3V17.2H27.7V19.2ZM27.6 19.2C27.6 19.1224 27.611 19.0976 27.6076 19.1067C27.6057 19.1121 27.6003 19.1248 27.5893 19.1415C27.5781 19.1584 27.5639 19.1751 27.5477 19.1899C27.5132 19.2212 27.4907 19.225 27.5088 19.2195C27.5305 19.2129 27.5892 19.2 27.7 19.2V17.2C27.2015 17.2 26.641 17.3112 26.2023 17.7101C25.7456 18.1253 25.6 18.6867 25.6 19.2H27.6ZM27.6 72.3V19.2H25.6V72.3H27.6ZM24.9 75C25.6208 75 26.3451 74.8191 26.8821 74.2821C27.4191 73.7451 27.6 73.0208 27.6 72.3H25.6C25.6 72.7125 25.4975 72.8382 25.4679 72.8679C25.4382 72.8975 25.3125 73 24.9 73V75ZM52.3594 75H58.6594V73H52.3594V75ZM49.6594 72.3C49.6594 73.0208 49.8403 73.7451 50.3773 74.2821C50.9143 74.8191 51.6386 75 52.3594 75V73C51.9469 73 51.8211 72.8975 51.7915 72.8679C51.7618 72.8382 51.6594 72.7125 51.6594 72.3H49.6594ZM49.6594 11.4V72.3H51.6594V11.4H49.6594ZM52.3594 8.69999C51.6386 8.69999 50.9143 8.88087 50.3773 9.41788C49.8403 9.9549 49.6594 10.6792 49.6594 11.4H51.6594C51.6594 10.9875 51.7618 10.8618 51.7915 10.8321C51.8211 10.8024 51.9469 10.7 52.3594 10.7V8.69999ZM58.6594 8.69999H52.3594V10.7H58.6594V8.69999ZM61.3594 11.4C61.3594 10.6792 61.1785 9.9549 60.6415 9.41789C60.1045 8.88087 59.3802 8.69999 58.6594 8.69999V10.7C59.0719 10.7 59.1976 10.8024 59.2273 10.8321C59.2569 10.8618 59.3594 10.9875 59.3594 11.4H61.3594ZM61.3594 36.4V11.4H59.3594V36.4H61.3594ZM61.5594 36.4C61.4256 36.4 61.3442 36.3857 61.302 36.374C61.2623 36.3629 61.2714 36.3583 61.2996 36.3818C61.3316 36.4084 61.3534 36.4424 61.3629 36.4661C61.3699 36.4837 61.3594 36.4687 61.3594 36.4H59.3594C59.3594 36.9403 59.5302 37.5107 60.0192 37.9182C60.4733 38.2966 61.0451 38.4 61.5594 38.4V36.4ZM82.6594 36.4H61.5594V38.4H82.6594V36.4ZM82.6594 36.4C82.6594 36.442 82.6567 36.4725 82.6538 36.4929C82.6509 36.5133 82.648 36.5219 82.6482 36.5213C82.6485 36.5203 82.652 36.5104 82.6613 36.4949C82.6659 36.4872 82.6716 36.4787 82.6786 36.4696C82.6857 36.4606 82.6936 36.4516 82.7023 36.4429C82.711 36.4342 82.72 36.4263 82.729 36.4192C82.7381 36.4122 82.7466 36.4065 82.7543 36.4019C82.7698 36.3926 82.7797 36.3891 82.7807 36.3888C82.7813 36.3886 82.7727 36.3915 82.7523 36.3944C82.7319 36.3973 82.7014 36.4 82.6594 36.4V38.4C83.1469 38.4 83.6961 38.2774 84.1165 37.8571C84.5368 37.4368 84.6594 36.8875 84.6594 36.4H82.6594ZM82.6594 11.4V36.4H84.6594V11.4H82.6594ZM85.3594 8.69999C84.6386 8.69999 83.9143 8.88087 83.3773 9.41789C82.8403 9.9549 82.6594 10.6792 82.6594 11.4H84.6594C84.6594 10.9875 84.7618 10.8618 84.7915 10.8321C84.8211 10.8024 84.9469 10.7 85.3594 10.7V8.69999ZM91.7594 8.69999H85.3594V10.7H91.7594V8.69999ZM94.4594 11.4C94.4594 10.6792 94.2785 9.9549 93.7415 9.41788C93.2045 8.88087 92.4802 8.69999 91.7594 8.69999V10.7C92.1719 10.7 92.2976 10.8024 92.3273 10.8321C92.3569 10.8618 92.4594 10.9875 92.4594 11.4H94.4594ZM94.4594 72.3V11.4H92.4594V72.3H94.4594ZM91.7594 75C92.4802 75 93.2045 74.8191 93.7415 74.2821C94.2785 73.7451 94.4594 73.0208 94.4594 72.3H92.4594C92.4594 72.7125 92.3569 72.8382 92.3273 72.8679C92.2976 72.8975 92.1719 73 91.7594 73V75ZM85.3594 75H91.7594V73H85.3594V75ZM82.6594 72.3C82.6594 73.0208 82.8403 73.7451 83.3773 74.2821C83.9143 74.8191 84.6386 75 85.3594 75V73C84.9469 73 84.8211 72.8975 84.7915 72.8679C84.7618 72.8382 84.6594 72.7125 84.6594 72.3H82.6594ZM82.6594 47V72.3H84.6594V47H82.6594ZM82.6594 47C82.7014 47 82.7319 47.0026 82.7523 47.0056C82.7727 47.0085 82.7813 47.0114 82.7806 47.0112C82.7797 47.0109 82.7698 47.0074 82.7543 46.9981C82.7466 46.9935 82.7381 46.9878 82.729 46.9808C82.72 46.9737 82.711 46.9658 82.7023 46.9571C82.6936 46.9484 82.6856 46.9394 82.6786 46.9303C82.6716 46.9213 82.6659 46.9128 82.6613 46.9051C82.652 46.8896 82.6485 46.8797 82.6482 46.8787C82.648 46.8781 82.6509 46.8867 82.6538 46.907C82.6567 46.9275 82.6594 46.9579 82.6594 47H84.6594C84.6594 46.5125 84.5368 45.9632 84.1165 45.5429C83.6961 45.1225 83.1469 45 82.6594 45V47ZM61.5594 47H82.6594V45H61.5594V47ZM61.3594 47C61.3594 46.9313 61.3699 46.9163 61.3629 46.9339C61.3534 46.9576 61.3316 46.9915 61.2996 47.0182C61.2714 47.0417 61.2623 47.037 61.302 47.026C61.3442 47.0143 61.4256 47 61.5594 47V45C61.0451 45 60.4733 45.1034 60.0192 45.4818C59.5302 45.8893 59.3594 46.4597 59.3594 47H61.3594ZM61.3594 72.3V47H59.3594V72.3H61.3594ZM58.6594 75C59.3802 75 60.1045 74.8191 60.6415 74.2821C61.1785 73.7451 61.3594 73.0208 61.3594 72.3H59.3594C59.3594 72.7125 59.2569 72.8382 59.2273 72.8679C59.1976 72.8975 59.0719 73 58.6594 73V75ZM109.781 75H141.781V73H109.781V75ZM107.081 72.3C107.081 73.0208 107.262 73.7451 107.799 74.2821C108.336 74.8191 109.06 75 109.781 75V73C109.369 73 109.243 72.8975 109.213 72.8679C109.184 72.8382 109.081 72.7125 109.081 72.3H107.081ZM107.081 11.4V72.3H109.081V11.4H107.081ZM109.781 8.69999C109.06 8.69999 108.336 8.88087 107.799 9.41789C107.262 9.9549 107.081 10.6792 107.081 11.4H109.081C109.081 10.9875 109.184 10.8618 109.213 10.8321C109.243 10.8024 109.369 10.7 109.781 10.7V8.69999ZM141.781 8.69999H109.781V10.7H141.781V8.69999ZM144.381 11.4C144.381 10.6938 144.216 9.97809 143.709 9.43962C143.192 8.88977 142.485 8.69999 141.781 8.69999V10.7C142.144 10.7 142.237 10.7935 142.253 10.8104C142.28 10.8386 142.381 10.9729 142.381 11.4H144.381ZM144.381 16.5V11.4H142.381V16.5H144.381ZM141.781 19.2C142.485 19.2 143.192 19.0102 143.709 18.4604C144.216 17.9219 144.381 17.2062 144.381 16.5H142.381C142.381 16.9271 142.28 17.0614 142.253 17.0896C142.237 17.1064 142.144 17.2 141.781 17.2V19.2ZM118.981 19.2H141.781V17.2H118.981V19.2ZM118.781 19.2C118.781 19.1313 118.792 19.1163 118.785 19.1339C118.775 19.1576 118.753 19.1915 118.721 19.2182C118.693 19.2417 118.684 19.237 118.724 19.226C118.766 19.2143 118.847 19.2 118.981 19.2V17.2C118.467 17.2 117.895 17.3034 117.441 17.6818C116.952 18.0893 116.781 18.6597 116.781 19.2H118.781ZM118.781 36.1V19.2H116.781V36.1H118.781ZM118.981 36.1C118.847 36.1 118.766 36.0857 118.724 36.074C118.684 36.0629 118.693 36.0583 118.721 36.0818C118.753 36.1084 118.775 36.1424 118.785 36.1661C118.792 36.1837 118.781 36.1687 118.781 36.1H116.781C116.781 36.6403 116.952 37.2107 117.441 37.6182C117.895 37.9966 118.467 38.1 118.981 38.1V36.1ZM138.281 36.1H118.981V38.1H138.281V36.1ZM141.081 38.8C141.081 38.0641 140.884 37.3324 140.318 36.798C139.763 36.2737 139.022 36.1 138.281 36.1V38.1C138.741 38.1 138.9 38.2096 138.945 38.252C138.979 38.2843 139.081 38.4025 139.081 38.8H141.081ZM141.081 43.9V38.8H139.081V43.9H141.081ZM138.281 46.6C139.022 46.6 139.763 46.4263 140.318 45.902C140.884 45.3676 141.081 44.6359 141.081 43.9H139.081C139.081 44.2974 138.979 44.4157 138.945 44.448C138.9 44.4904 138.741 44.6 138.281 44.6V46.6ZM118.981 46.6H138.281V44.6H118.981V46.6ZM118.781 46.6C118.781 46.5313 118.792 46.5163 118.785 46.5339C118.775 46.5576 118.753 46.5915 118.721 46.6182C118.693 46.6417 118.684 46.637 118.724 46.626C118.766 46.6143 118.847 46.6 118.981 46.6V44.6C118.467 44.6 117.895 44.7034 117.441 45.0818C116.952 45.4893 116.781 46.0597 116.781 46.6H118.781ZM118.781 64.4V46.6H116.781V64.4H118.781ZM118.981 64.5C118.854 64.5 118.782 64.4851 118.748 64.4749C118.719 64.4658 118.731 64.4642 118.757 64.4878C118.769 64.4988 118.779 64.511 118.787 64.5226C118.794 64.534 118.797 64.5408 118.796 64.5395C118.795 64.5353 118.781 64.4951 118.781 64.4H116.781C116.781 64.9443 116.934 65.5297 117.406 65.9622C117.861 66.3795 118.448 66.5 118.981 66.5V64.5ZM141.781 64.5H118.981V66.5H141.781V64.5ZM144.381 67.2C144.381 66.4938 144.216 65.7781 143.709 65.2396C143.192 64.6898 142.485 64.5 141.781 64.5V66.5C142.144 66.5 142.237 66.5935 142.253 66.6104C142.28 66.6386 142.381 66.7729 142.381 67.2H144.381ZM144.381 72.3V67.2H142.381V72.3H144.381ZM141.781 75C142.485 75 143.192 74.8102 143.709 74.2604C144.216 73.7219 144.381 73.0062 144.381 72.3H142.381C142.381 72.7271 142.28 72.8614 142.253 72.8896C142.237 72.9064 142.144 73 141.781 73V75ZM22.75 138H15.26V140H22.75V138ZM30.0229 135.423C28.3427 137.103 25.9638 138 22.75 138V140C26.3495 140 29.2906 138.984 31.4371 136.837L30.0229 135.423ZM32.6 128.15C32.6 131.364 31.7031 133.743 30.0229 135.423L31.4371 136.837C33.5836 134.691 34.6 131.749 34.6 128.15H32.6ZM32.6 116.39V128.15H34.6V116.39H32.6ZM32.13 115.92C32.2947 115.92 32.398 115.941 32.4569 115.961C32.5109 115.979 32.5251 115.994 32.5254 115.995C32.5257 115.995 32.5414 116.009 32.5594 116.063C32.5791 116.122 32.6 116.225 32.6 116.39H34.6C34.6 115.746 34.4383 115.079 33.9396 114.58C33.4409 114.082 32.7741 113.92 32.13 113.92V115.92ZM20.37 115.92H32.13V113.92H20.37V115.92ZM20.18 116.11C20.18 115.992 20.1951 115.929 20.2031 115.906C20.2094 115.887 20.2076 115.902 20.1846 115.925C20.1616 115.948 20.1466 115.949 20.1656 115.943C20.1895 115.935 20.252 115.92 20.37 115.92V113.92C19.8192 113.92 19.2224 114.058 18.7704 114.51C18.3184 114.962 18.18 115.559 18.18 116.11H20.18ZM20.18 119.68V116.11H18.18V119.68H20.18ZM20.37 119.87C20.252 119.87 20.1895 119.855 20.1656 119.847C20.1466 119.841 20.1616 119.842 20.1846 119.865C20.2076 119.888 20.2094 119.903 20.2031 119.884C20.1951 119.861 20.18 119.798 20.18 119.68H18.18C18.18 120.231 18.3184 120.828 18.7704 121.28C19.2224 121.732 19.8192 121.87 20.37 121.87V119.87ZM26.04 119.87H20.37V121.87H26.04V119.87ZM27.81 121.57C27.81 121.157 27.6919 120.67 27.2902 120.305C26.9065 119.956 26.4285 119.87 26.04 119.87V121.87C26.1649 121.87 26.0719 121.9 25.9448 121.785C25.8808 121.727 25.8422 121.66 25.823 121.608C25.8059 121.561 25.81 121.542 25.81 121.57H27.81ZM27.81 127.87V121.57H25.81V127.87H27.81ZM21.77 134.05C23.6112 134.05 25.1742 133.575 26.2667 132.452C27.3544 131.335 27.81 129.744 27.81 127.87H25.81C25.81 129.449 25.4256 130.449 24.8333 131.058C24.2458 131.661 23.2888 132.05 21.77 132.05V134.05ZM16.24 134.05H21.77V132.05H16.24V134.05ZM10.2 127.87C10.2 129.744 10.6556 131.335 11.7433 132.452C12.8358 133.575 14.3988 134.05 16.24 134.05V132.05C14.7212 132.05 13.7642 131.661 13.1767 131.058C12.5844 130.449 12.2 129.449 12.2 127.87H10.2ZM10.2 105.12V127.87H12.2V105.12H10.2ZM16.24 98.94C14.3988 98.94 12.8358 99.4147 11.7433 100.538C10.6556 101.655 10.2 103.246 10.2 105.12H12.2C12.2 103.541 12.5844 102.541 13.1767 101.932C13.7642 101.329 14.7212 100.94 16.24 100.94V98.94ZM21.77 98.94H16.24V100.94H21.77V98.94ZM27.81 105.12C27.81 103.246 27.3544 101.655 26.2667 100.538C25.1742 99.4147 23.6112 98.94 21.77 98.94V100.94C23.2888 100.94 24.2458 101.329 24.8333 101.932C25.4256 102.541 25.81 103.541 25.81 105.12H27.81ZM27.81 107.36V105.12H25.81V107.36H27.81ZM28 107.62C27.8871 107.62 27.8306 107.605 27.8122 107.598C27.7993 107.594 27.8147 107.597 27.8345 107.618C27.8771 107.663 27.81 107.64 27.81 107.36H25.81C25.81 107.92 25.9412 108.527 26.3805 108.992C26.8299 109.467 27.4341 109.62 28 109.62V107.62ZM32.41 107.62H28V109.62H32.41V107.62ZM32.6 107.36C32.6 107.64 32.5329 107.663 32.5755 107.618C32.5953 107.597 32.6107 107.594 32.5978 107.598C32.5794 107.605 32.5229 107.62 32.41 107.62V109.62C32.9759 109.62 33.5801 109.467 34.0295 108.992C34.4688 108.527 34.6 107.92 34.6 107.36H32.6ZM32.6 104.84V107.36H34.6V104.84H32.6ZM30.0317 97.5758C31.7001 99.2035 32.6 101.574 32.6 104.84H34.6C34.6 101.2 33.5865 98.2498 31.4283 96.1442L30.0317 97.5758ZM22.75 94.99C26.0163 94.99 28.3865 95.8899 30.0142 97.5583L31.4458 96.1617C29.3402 94.0034 26.3903 92.99 22.75 92.99V94.99ZM15.26 94.99H22.75V92.99H15.26V94.99ZM7.91711 97.5671C9.59478 95.8894 11.995 94.99 15.26 94.99V92.99C11.6183 92.99 8.65189 94.0039 6.50289 96.1529L7.91711 97.5671ZM5.41 104.84C5.41 101.567 6.29056 99.1936 7.91711 97.5671L6.50289 96.1529C4.3961 98.2597 3.41 101.206 3.41 104.84H5.41ZM5.41 128.15V104.84H3.41V128.15H5.41ZM7.92578 135.432C6.28767 133.753 5.41 131.371 5.41 128.15H3.41C3.41 131.743 4.39899 134.681 6.49422 136.828L7.92578 135.432ZM15.26 138C11.995 138 9.59478 137.101 7.91711 135.423L6.50289 136.837C8.65189 138.986 11.6183 140 15.26 140V138ZM45.5678 138H40.5278V140H45.5678V138ZM45.8544 137.581C45.7882 137.862 45.7067 137.956 45.6862 137.975C45.6782 137.983 45.6739 137.985 45.6674 137.988C45.6588 137.991 45.6294 138 45.5678 138V140C46.1137 140 46.6391 139.826 47.0594 139.43C47.459 139.052 47.6807 138.551 47.8012 138.039L45.8544 137.581ZM48.528 128.429L45.868 137.529L47.7876 138.091L50.4476 128.991L48.528 128.429ZM64.8878 127.71H49.4878V129.71H64.8878V127.71ZM68.5076 137.529L65.8476 128.429L63.928 128.991L66.588 138.091L68.5076 137.529ZM68.6978 138.19C68.7096 138.206 68.6864 138.179 68.6471 138.069C68.6098 137.964 68.5688 137.816 68.5284 137.614L66.5672 138.006C66.6656 138.498 66.8156 139.014 67.0978 139.39L68.6978 138.19ZM68.8078 138C68.6491 138 68.5476 137.986 68.4902 137.973C68.4313 137.96 68.449 137.953 68.4978 137.99L67.2978 139.59C67.749 139.928 68.3237 140 68.8078 140V138ZM73.7778 138H68.8078V140H73.7778V138ZM73.5744 138.039C73.6064 138.175 73.6078 138.248 73.6064 138.272C73.6052 138.293 73.6045 138.238 73.6557 138.159C73.681 138.12 73.7131 138.085 73.7491 138.055C73.7845 138.027 73.8162 138.01 73.8367 138.002C73.8731 137.987 73.8649 138 73.7778 138V140C74.2922 140 74.9441 139.85 75.3349 139.246C75.688 138.7 75.6346 138.063 75.5212 137.581L73.5744 138.039ZM61.4063 95.4547L73.5863 138.085L75.5093 137.535L63.3293 94.9053L61.4063 95.4547ZM60.6878 94.99C61.0204 94.99 61.1699 95.0611 61.2298 95.1035C61.2747 95.1354 61.3459 95.2028 61.3944 95.409L63.3412 94.951C63.2031 94.3639 62.9009 93.8363 62.3858 93.4715C61.8857 93.1172 61.2885 92.99 60.6878 92.99V94.99ZM53.6878 94.99H60.6878V92.99H53.6878V94.99ZM52.9672 95.4622C53.0338 95.2355 53.1198 95.1467 53.1808 95.1035C53.2485 95.0556 53.3912 94.99 53.6878 94.99V92.99C53.0977 92.99 52.5171 93.1228 52.0248 93.4715C51.5258 93.8249 51.2151 94.3311 51.0484 94.8978L52.9672 95.4622ZM40.7893 138.085L52.9693 95.4547L51.0463 94.9053L38.8663 137.535L40.7893 138.085ZM40.5278 138C40.4592 138 40.4711 137.989 40.5249 138.013C40.554 138.026 40.5916 138.048 40.6303 138.082C40.6695 138.116 40.7013 138.156 40.7247 138.195C40.7711 138.274 40.767 138.322 40.7658 138.291C40.7645 138.259 40.7682 138.179 40.8012 138.039L38.8544 137.581C38.7437 138.052 38.6841 138.671 39.0009 139.21C39.3674 139.833 40.0115 140 40.5278 140V138ZM56.0836 100.445L49.9236 122.845L51.852 123.375L58.012 100.975L56.0836 100.445ZM57.3278 99.71H57.0478V101.71H57.3278V99.71ZM64.5212 122.842L58.2912 100.442L56.3644 100.978L62.5944 123.378L64.5212 122.842ZM50.8878 124.11H63.5578V122.11H50.8878V124.11ZM112.267 94.99H120.107V92.99H112.267V94.99ZM112.201 94.9389C112.208 94.9039 112.213 94.9035 112.202 94.9221C112.197 94.9313 112.189 94.9432 112.177 94.956C112.166 94.9688 112.154 94.9799 112.141 94.9889C112.116 95.0076 112.103 95.0084 112.12 95.004C112.138 94.999 112.184 94.99 112.267 94.99V92.99C111.834 92.99 111.361 93.0807 110.959 93.3761C110.537 93.6853 110.316 94.1267 110.234 94.5811L112.201 94.9389ZM102.499 122.117L112.159 95.0966L110.276 94.4233L100.616 121.443L102.499 122.117ZM101.207 122.78H101.557V120.78H101.207V122.78ZM90.675 95.0945L100.265 122.114L102.15 121.446L92.5598 94.4255L90.675 95.0945ZM90.4974 94.99C90.5421 94.99 90.5671 94.9955 90.5781 94.9987C90.5881 95.0016 90.5924 95.0042 90.5959 95.0065C90.6002 95.0095 90.6473 95.0424 90.7071 95.1738L92.5278 94.3462C92.3542 93.9643 92.098 93.6122 91.729 93.3584C91.354 93.1007 90.9285 92.99 90.4974 92.99V94.99ZM82.6574 94.99H90.4974V92.99H82.6574V94.99ZM82.4674 95.18C82.4674 95.062 82.4825 94.9995 82.4905 94.9756C82.4968 94.9565 82.495 94.9716 82.472 94.9946C82.449 95.0176 82.434 95.0194 82.453 95.013C82.4769 95.0051 82.5394 94.99 82.6574 94.99V92.99C82.1066 92.99 81.5098 93.1284 81.0578 93.5804C80.6058 94.0324 80.4674 94.6292 80.4674 95.18H82.4674ZM82.4674 137.81V95.18H80.4674V137.81H82.4674ZM82.6574 138C82.5394 138 82.4769 137.985 82.453 137.977C82.434 137.971 82.449 137.972 82.472 137.995C82.495 138.018 82.4968 138.033 82.4905 138.014C82.4825 137.991 82.4674 137.928 82.4674 137.81H80.4674C80.4674 138.361 80.6058 138.958 81.0578 139.41C81.5098 139.862 82.1066 140 82.6574 140V138ZM86.9274 138H82.6574V140H86.9274V138ZM87.1303 138.083C87.1931 138.02 87.2493 137.99 87.2737 137.978C87.2979 137.967 87.3036 137.968 87.2801 137.973C87.2289 137.985 87.1186 138 86.9274 138V140C87.2029 140 87.4776 139.98 87.7298 139.922C87.9684 139.867 88.2865 139.755 88.5445 139.497L87.1303 138.083ZM87.1174 137.81C87.1174 137.982 87.0995 138.083 87.0859 138.13C87.0728 138.176 87.0738 138.139 87.1303 138.083L88.5445 139.497C89.0191 139.023 89.1174 138.354 89.1174 137.81H87.1174ZM87.1174 102.39V137.81H89.1174V102.39H87.1174ZM88.3974 101.39H88.1174V103.39H88.3974V101.39ZM98.6476 127.739L89.3376 102.049L87.4573 102.731L96.7673 128.421L98.6476 127.739ZM99.1774 128.2C99.0151 128.2 98.9385 128.161 98.891 128.125C98.8338 128.081 98.7368 127.977 98.6437 127.729L96.7711 128.431C96.958 128.93 97.246 129.386 97.6789 129.715C98.1214 130.053 98.6397 130.2 99.1774 130.2V128.2ZM103.657 128.2H99.1774V130.2H103.657V128.2ZM104.261 127.729C104.172 127.966 104.076 128.066 104.014 128.111C103.957 128.153 103.858 128.2 103.657 128.2V130.2C104.204 130.2 104.734 130.061 105.191 129.729C105.642 129.401 105.943 128.941 106.134 128.431L104.261 127.729ZM113.355 102.125L104.255 127.745L106.14 128.415L115.24 102.795L113.355 102.125ZM114.577 101.46H114.297V103.46H114.577V101.46ZM115.577 137.81V102.46H113.577V137.81H115.577ZM115.767 138C115.649 138 115.587 137.985 115.563 137.977C115.544 137.971 115.559 137.972 115.582 137.995C115.605 138.018 115.607 138.033 115.6 138.014C115.593 137.991 115.577 137.928 115.577 137.81H113.577C113.577 138.361 113.716 138.958 114.168 139.41C114.62 139.862 115.217 140 115.767 140V138ZM120.107 138H115.767V140H120.107V138ZM120.297 137.81C120.297 137.928 120.282 137.991 120.274 138.014C120.268 138.033 120.27 138.018 120.293 137.995C120.316 137.972 120.331 137.971 120.312 137.977C120.288 137.985 120.225 138 120.107 138V140C120.658 140 121.255 139.862 121.707 139.41C122.159 138.958 122.297 138.361 122.297 137.81H120.297ZM120.297 95.18V137.81H122.297V95.18H120.297ZM120.107 94.99C120.225 94.99 120.288 95.0051 120.312 95.013C120.331 95.0194 120.316 95.0176 120.293 94.9946C120.27 94.9716 120.268 94.9565 120.274 94.9756C120.282 94.9995 120.297 95.062 120.297 95.18H122.297C122.297 94.6292 122.159 94.0324 121.707 93.5804C121.255 93.1284 120.658 92.99 120.107 92.99V94.99ZM155.096 138H132.696V140H155.096V138ZM155.216 137.81C155.216 137.933 155.202 138.002 155.192 138.031C155.184 138.057 155.184 138.043 155.208 138.017C155.234 137.99 155.256 137.982 155.253 137.983C155.243 137.986 155.197 138 155.096 138V140C155.64 140 156.227 139.853 156.665 139.388C157.091 138.934 157.216 138.346 157.216 137.81H155.216ZM155.216 134.24V137.81H157.216V134.24H155.216ZM155.096 134.05C155.197 134.05 155.243 134.064 155.253 134.067C155.256 134.068 155.234 134.06 155.208 134.033C155.184 134.007 155.184 133.993 155.192 134.019C155.202 134.048 155.216 134.117 155.216 134.24H157.216C157.216 133.704 157.091 133.116 156.665 132.662C156.227 132.197 155.64 132.05 155.096 132.05V134.05ZM139.136 134.05H155.096V132.05H139.136V134.05ZM137.296 132.28C137.296 132.714 137.419 133.217 137.831 133.595C138.226 133.957 138.723 134.05 139.136 134.05V132.05C138.99 132.05 139.067 132.015 139.182 132.12C139.24 132.173 139.273 132.232 139.289 132.275C139.302 132.312 139.296 132.32 139.296 132.28H137.296ZM137.296 119.82V132.28H139.296V119.82H137.296ZM139.136 118.12C138.742 118.12 138.26 118.198 137.866 118.527C137.437 118.884 137.296 119.38 137.296 119.82H139.296C139.296 119.801 139.299 119.83 139.277 119.885C139.253 119.946 139.209 120.012 139.147 120.063C139.089 120.112 139.042 120.126 139.037 120.127C139.034 120.128 139.063 120.12 139.136 120.12V118.12ZM152.646 118.12H139.136V120.12H152.646V118.12ZM152.906 117.93C152.906 118.043 152.891 118.099 152.885 118.118C152.88 118.131 152.884 118.115 152.905 118.095C152.95 118.053 152.926 118.12 152.646 118.12V120.12C153.207 120.12 153.813 119.989 154.278 119.55C154.754 119.1 154.906 118.496 154.906 117.93H152.906ZM152.906 114.36V117.93H154.906V114.36H152.906ZM152.646 114.17C152.926 114.17 152.95 114.237 152.905 114.195C152.884 114.175 152.88 114.159 152.885 114.172C152.891 114.191 152.906 114.247 152.906 114.36H154.906C154.906 113.794 154.754 113.19 154.278 112.74C153.813 112.301 153.207 112.17 152.646 112.17V114.17ZM139.136 114.17H152.646V112.17H139.136V114.17ZM137.296 112.47C137.296 112.91 137.437 113.406 137.866 113.763C138.26 114.092 138.742 114.17 139.136 114.17V112.17C139.063 112.17 139.034 112.162 139.037 112.163C139.042 112.164 139.089 112.178 139.147 112.227C139.209 112.278 139.253 112.344 139.277 112.405C139.299 112.46 139.296 112.489 139.296 112.47H137.296ZM137.296 100.64V112.47H139.296V100.64H137.296ZM139.136 98.94C138.742 98.94 138.26 99.0183 137.866 99.3468C137.437 99.7043 137.296 100.2 137.296 100.64H139.296C139.296 100.621 139.299 100.65 139.277 100.705C139.253 100.766 139.209 100.832 139.147 100.883C139.089 100.932 139.042 100.946 139.037 100.947C139.034 100.948 139.063 100.94 139.136 100.94V98.94ZM155.096 98.94H139.136V100.94H155.096V98.94ZM155.216 98.75C155.216 98.873 155.202 98.9416 155.192 98.9713C155.184 98.9968 155.184 98.9828 155.208 98.9571C155.234 98.9301 155.256 98.9216 155.253 98.923C155.243 98.9263 155.197 98.94 155.096 98.94V100.94C155.64 100.94 156.227 100.793 156.665 100.328C157.091 99.8744 157.216 99.2862 157.216 98.75H155.216ZM155.216 95.18V98.75H157.216V95.18H155.216ZM155.096 94.99C155.197 94.99 155.243 95.0037 155.253 95.007C155.256 95.0083 155.234 94.9999 155.208 94.9729C155.184 94.9472 155.184 94.9331 155.192 94.9587C155.202 94.9884 155.216 95.057 155.216 95.18H157.216C157.216 94.6438 157.091 94.0556 156.665 93.6021C156.227 93.1373 155.64 92.99 155.096 92.99V94.99ZM132.696 94.99H155.096V92.99H132.696V94.99ZM132.506 95.18C132.506 95.062 132.522 94.9995 132.53 94.9756C132.536 94.9565 132.534 94.9716 132.511 94.9946C132.488 95.0176 132.473 95.0194 132.492 95.013C132.516 95.0051 132.579 94.99 132.696 94.99V92.99C132.146 92.99 131.549 93.1284 131.097 93.5804C130.645 94.0324 130.506 94.6292 130.506 95.18H132.506ZM132.506 137.81V95.18H130.506V137.81H132.506ZM132.696 138C132.579 138 132.516 137.985 132.492 137.977C132.473 137.971 132.488 137.972 132.511 137.995C132.534 138.018 132.536 138.033 132.53 138.014C132.522 137.991 132.506 137.928 132.506 137.81H130.506C130.506 138.361 130.645 138.958 131.097 139.41C131.549 139.862 132.146 140 132.696 140V138Z" fill="black" mask="url(#path-1-outside-1_12_2)"/>
</svg>
