<svg width="135" height="77" viewBox="0 0 135 77" fill="none" xmlns="http://www.w3.org/2000/svg">
<mask id="path-1-outside-1_6_12" maskUnits="userSpaceOnUse" x="0.699997" y="-0.996429" width="134" height="78" fill="black">
<rect fill="white" x="0.699997" y="-0.996429" width="134" height="78"/>
<path fill-rule="evenodd" clip-rule="evenodd" d="M85.0139 7.55V2C85.0139 1.6 85.1389 1.3 85.3889 1.1C85.6389 0.950001 85.9639 0.975001 86.3639 1.175L109.989 13.55L131.889 1.7C132.239 1.5 132.539 1.475 132.789 1.625C133.089 1.825 133.239 2.125 133.239 2.525V7.85C133.239 8.85 132.814 9.55 131.964 9.95L114.564 18.575V18.875L131.964 27.5C132.814 27.95 133.239 28.6 133.239 29.45V35C133.239 35.4 133.089 35.675 132.789 35.825C132.489 36.025 132.164 36.05 131.814 35.9L109.989 23.9L86.4389 36.275C86.0389 36.475 85.6889 36.5 85.3889 36.35C85.1389 36.2 85.0139 35.9 85.0139 35.45V29.825C85.0139 29.025 85.4139 28.45 86.2139 28.1L104.514 18.875V18.575L86.2139 9.35C85.4139 9 85.0139 8.4 85.0139 7.55ZM91.3889 55.8775V62.4025C91.3889 66.0525 93.2389 67.8775 96.9389 67.8775H121.314C125.014 67.8775 126.864 66.0525 126.864 62.4025V55.8775C126.864 52.2775 125.014 50.4775 121.314 50.4775H96.9389C93.2389 50.4775 91.3889 52.2775 91.3889 55.8775ZM85.0139 63.5275V54.8275C85.0139 51.1275 86.0389 48.2525 88.0889 46.2025C90.1389 44.2025 92.9889 43.2025 96.6389 43.2025H121.614C125.314 43.2025 128.164 44.2025 130.164 46.2025C132.214 48.2525 133.239 51.1275 133.239 54.8275V63.5275C133.239 67.2275 132.214 70.1025 130.164 72.1525C128.164 74.2025 125.314 75.2275 121.614 75.2275H96.6389C92.9889 75.2275 90.1389 74.2025 88.0889 72.1525C86.0389 70.1025 85.0139 67.2275 85.0139 63.5275ZM13.45 39H10.3C9.7 39 9.4 38.7167 9.4 38.15V11.6C9.4 11.2667 9.23333 11.1 8.9 11.1H2.6C2 11.1 1.7 10.8167 1.7 10.25V7.7C1.7 7.13333 2 6.85 2.6 6.85H21.15C21.75 6.85 22.05 7.13333 22.05 7.7V10.25C22.05 10.8167 21.75 11.1 21.15 11.1H14.85C14.4833 11.1 14.3 11.2667 14.3 11.6V38.15C14.3 38.7167 14.0167 39 13.45 39ZM30.3297 39H27.1797C26.613 39 26.3297 38.7167 26.3297 38.15V7.7C26.3297 7.13333 26.613 6.85 27.1797 6.85H30.3297C30.8964 6.85 31.1797 7.13333 31.1797 7.7V20.2C31.1797 20.5333 31.3797 20.7 31.7797 20.7H42.3297C42.663 20.7 42.8297 20.5333 42.8297 20.2V7.7C42.8297 7.13333 43.113 6.85 43.6797 6.85H46.8797C47.4464 6.85 47.7297 7.13333 47.7297 7.7V38.15C47.7297 38.7167 47.4464 39 46.8797 39H43.6797C43.113 39 42.8297 38.7167 42.8297 38.15V25.5C42.8297 25.1667 42.663 25 42.3297 25H31.7797C31.3797 25 31.1797 25.1667 31.1797 25.5V38.15C31.1797 38.7167 30.8964 39 30.3297 39ZM71.8906 39H55.8906C55.324 39 55.0406 38.7167 55.0406 38.15V7.7C55.0406 7.13333 55.324 6.85 55.8906 6.85H71.8906C72.424 6.85 72.6906 7.13333 72.6906 7.7V10.25C72.6906 10.8167 72.424 11.1 71.8906 11.1H60.4906C60.0906 11.1 59.8906 11.2667 59.8906 11.6V20.05C59.8906 20.3833 60.0906 20.55 60.4906 20.55H70.1406C70.7406 20.55 71.0406 20.8333 71.0406 21.4V23.95C71.0406 24.5167 70.7406 24.8 70.1406 24.8H60.4906C60.0906 24.8 59.8906 24.9667 59.8906 25.3V34.2C59.8906 34.5667 60.0906 34.75 60.4906 34.75H71.8906C72.424 34.75 72.6906 35.0333 72.6906 35.6V38.15C72.6906 38.7167 72.424 39 71.8906 39ZM8.63 72H12.375C14.0783 72 15.4083 71.5217 16.365 70.565C17.3217 69.6083 17.8 68.2783 17.8 66.575V60.695C17.8 60.205 17.555 59.96 17.065 59.96H11.185C10.7883 59.96 10.59 60.1583 10.59 60.555V62.34C10.59 62.7367 10.7883 62.935 11.185 62.935H14.02C14.2767 62.935 14.405 63.0517 14.405 63.285V66.435C14.405 68.1617 13.565 69.025 11.885 69.025H9.12C7.44 69.025 6.6 68.1617 6.6 66.435V55.06C6.6 53.3333 7.44 52.47 9.12 52.47H11.885C13.565 52.47 14.405 53.3333 14.405 55.06V56.18C14.405 56.6 14.6033 56.81 15 56.81H17.205C17.6017 56.81 17.8 56.6 17.8 56.18V54.92C17.8 53.1933 17.3217 51.8633 16.365 50.93C15.4317 49.9733 14.1017 49.495 12.375 49.495H8.63C6.90333 49.495 5.56167 49.9733 4.605 50.93C3.67167 51.8633 3.205 53.1933 3.205 54.92V66.575C3.205 68.2783 3.67167 69.6083 4.605 70.565C5.56167 71.5217 6.90333 72 8.63 72ZM21.2639 72H23.7839C24.1106 72 24.3206 71.8017 24.4139 71.405L25.7439 66.855H33.4439L34.7739 71.405C34.8206 71.6383 34.8789 71.8017 34.9489 71.895C35.0422 71.965 35.1939 72 35.4039 72H37.8889C38.2389 72 38.3672 71.8017 38.2739 71.405L32.1839 50.09C32.0906 49.6933 31.8106 49.495 31.3439 49.495H27.8439C27.4006 49.495 27.1206 49.6933 27.0039 50.09L20.9139 71.405C20.8206 71.8017 20.9372 72 21.2639 72ZM26.4439 64.055L29.5239 52.855H29.6639L32.7789 64.055H26.4439ZM61.0537 49.495H57.1337C56.8304 49.495 56.6554 49.6233 56.6087 49.88L51.7787 63.39H51.6037L46.8087 49.88C46.692 49.6233 46.5054 49.495 46.2487 49.495H42.3287C41.932 49.495 41.7337 49.6933 41.7337 50.09V71.405C41.7337 71.8017 41.932 72 42.3287 72H44.4637C44.697 72 44.8487 71.965 44.9187 71.895C45.012 71.8017 45.0587 71.6383 45.0587 71.405V53.695H45.1987L49.8537 66.54C49.9937 66.9133 50.2387 67.1 50.5887 67.1H52.8287C53.202 67.1 53.4587 66.9133 53.5987 66.54L58.1487 53.73H58.2887V71.405C58.2887 71.8017 58.487 72 58.8837 72H61.0537C61.4504 72 61.6487 71.8017 61.6487 71.405V50.09C61.6487 49.6933 61.4504 49.495 61.0537 49.495ZM67.3482 72H78.5482C78.9216 72 79.1082 71.8017 79.1082 71.405V69.62C79.1082 69.2233 78.9216 69.025 78.5482 69.025H70.5682C70.2882 69.025 70.1482 68.8967 70.1482 68.64V62.41C70.1482 62.1767 70.2882 62.06 70.5682 62.06H77.3232C77.7432 62.06 77.9532 61.8617 77.9532 61.465V59.68C77.9532 59.2833 77.7432 59.085 77.3232 59.085H70.5682C70.2882 59.085 70.1482 58.9683 70.1482 58.735V52.82C70.1482 52.5867 70.2882 52.47 70.5682 52.47H78.5482C78.9216 52.47 79.1082 52.2717 79.1082 51.875V50.09C79.1082 49.6933 78.9216 49.495 78.5482 49.495H67.3482C66.9516 49.495 66.7532 49.6933 66.7532 50.09V71.405C66.7532 71.8017 66.9516 72 67.3482 72Z"/>
</mask>
<path fill-rule="evenodd" clip-rule="evenodd" d="M85.0139 7.55V2C85.0139 1.6 85.1389 1.3 85.3889 1.1C85.6389 0.950001 85.9639 0.975001 86.3639 1.175L109.989 13.55L131.889 1.7C132.239 1.5 132.539 1.475 132.789 1.625C133.089 1.825 133.239 2.125 133.239 2.525V7.85C133.239 8.85 132.814 9.55 131.964 9.95L114.564 18.575V18.875L131.964 27.5C132.814 27.95 133.239 28.6 133.239 29.45V35C133.239 35.4 133.089 35.675 132.789 35.825C132.489 36.025 132.164 36.05 131.814 35.9L109.989 23.9L86.4389 36.275C86.0389 36.475 85.6889 36.5 85.3889 36.35C85.1389 36.2 85.0139 35.9 85.0139 35.45V29.825C85.0139 29.025 85.4139 28.45 86.2139 28.1L104.514 18.875V18.575L86.2139 9.35C85.4139 9 85.0139 8.4 85.0139 7.55ZM91.3889 55.8775V62.4025C91.3889 66.0525 93.2389 67.8775 96.9389 67.8775H121.314C125.014 67.8775 126.864 66.0525 126.864 62.4025V55.8775C126.864 52.2775 125.014 50.4775 121.314 50.4775H96.9389C93.2389 50.4775 91.3889 52.2775 91.3889 55.8775ZM85.0139 63.5275V54.8275C85.0139 51.1275 86.0389 48.2525 88.0889 46.2025C90.1389 44.2025 92.9889 43.2025 96.6389 43.2025H121.614C125.314 43.2025 128.164 44.2025 130.164 46.2025C132.214 48.2525 133.239 51.1275 133.239 54.8275V63.5275C133.239 67.2275 132.214 70.1025 130.164 72.1525C128.164 74.2025 125.314 75.2275 121.614 75.2275H96.6389C92.9889 75.2275 90.1389 74.2025 88.0889 72.1525C86.0389 70.1025 85.0139 67.2275 85.0139 63.5275ZM13.45 39H10.3C9.7 39 9.4 38.7167 9.4 38.15V11.6C9.4 11.2667 9.23333 11.1 8.9 11.1H2.6C2 11.1 1.7 10.8167 1.7 10.25V7.7C1.7 7.13333 2 6.85 2.6 6.85H21.15C21.75 6.85 22.05 7.13333 22.05 7.7V10.25C22.05 10.8167 21.75 11.1 21.15 11.1H14.85C14.4833 11.1 14.3 11.2667 14.3 11.6V38.15C14.3 38.7167 14.0167 39 13.45 39ZM30.3297 39H27.1797C26.613 39 26.3297 38.7167 26.3297 38.15V7.7C26.3297 7.13333 26.613 6.85 27.1797 6.85H30.3297C30.8964 6.85 31.1797 7.13333 31.1797 7.7V20.2C31.1797 20.5333 31.3797 20.7 31.7797 20.7H42.3297C42.663 20.7 42.8297 20.5333 42.8297 20.2V7.7C42.8297 7.13333 43.113 6.85 43.6797 6.85H46.8797C47.4464 6.85 47.7297 7.13333 47.7297 7.7V38.15C47.7297 38.7167 47.4464 39 46.8797 39H43.6797C43.113 39 42.8297 38.7167 42.8297 38.15V25.5C42.8297 25.1667 42.663 25 42.3297 25H31.7797C31.3797 25 31.1797 25.1667 31.1797 25.5V38.15C31.1797 38.7167 30.8964 39 30.3297 39ZM71.8906 39H55.8906C55.324 39 55.0406 38.7167 55.0406 38.15V7.7C55.0406 7.13333 55.324 6.85 55.8906 6.85H71.8906C72.424 6.85 72.6906 7.13333 72.6906 7.7V10.25C72.6906 10.8167 72.424 11.1 71.8906 11.1H60.4906C60.0906 11.1 59.8906 11.2667 59.8906 11.6V20.05C59.8906 20.3833 60.0906 20.55 60.4906 20.55H70.1406C70.7406 20.55 71.0406 20.8333 71.0406 21.4V23.95C71.0406 24.5167 70.7406 24.8 70.1406 24.8H60.4906C60.0906 24.8 59.8906 24.9667 59.8906 25.3V34.2C59.8906 34.5667 60.0906 34.75 60.4906 34.75H71.8906C72.424 34.75 72.6906 35.0333 72.6906 35.6V38.15C72.6906 38.7167 72.424 39 71.8906 39ZM8.63 72H12.375C14.0783 72 15.4083 71.5217 16.365 70.565C17.3217 69.6083 17.8 68.2783 17.8 66.575V60.695C17.8 60.205 17.555 59.96 17.065 59.96H11.185C10.7883 59.96 10.59 60.1583 10.59 60.555V62.34C10.59 62.7367 10.7883 62.935 11.185 62.935H14.02C14.2767 62.935 14.405 63.0517 14.405 63.285V66.435C14.405 68.1617 13.565 69.025 11.885 69.025H9.12C7.44 69.025 6.6 68.1617 6.6 66.435V55.06C6.6 53.3333 7.44 52.47 9.12 52.47H11.885C13.565 52.47 14.405 53.3333 14.405 55.06V56.18C14.405 56.6 14.6033 56.81 15 56.81H17.205C17.6017 56.81 17.8 56.6 17.8 56.18V54.92C17.8 53.1933 17.3217 51.8633 16.365 50.93C15.4317 49.9733 14.1017 49.495 12.375 49.495H8.63C6.90333 49.495 5.56167 49.9733 4.605 50.93C3.67167 51.8633 3.205 53.1933 3.205 54.92V66.575C3.205 68.2783 3.67167 69.6083 4.605 70.565C5.56167 71.5217 6.90333 72 8.63 72ZM21.2639 72H23.7839C24.1106 72 24.3206 71.8017 24.4139 71.405L25.7439 66.855H33.4439L34.7739 71.405C34.8206 71.6383 34.8789 71.8017 34.9489 71.895C35.0422 71.965 35.1939 72 35.4039 72H37.8889C38.2389 72 38.3672 71.8017 38.2739 71.405L32.1839 50.09C32.0906 49.6933 31.8106 49.495 31.3439 49.495H27.8439C27.4006 49.495 27.1206 49.6933 27.0039 50.09L20.9139 71.405C20.8206 71.8017 20.9372 72 21.2639 72ZM26.4439 64.055L29.5239 52.855H29.6639L32.7789 64.055H26.4439ZM61.0537 49.495H57.1337C56.8304 49.495 56.6554 49.6233 56.6087 49.88L51.7787 63.39H51.6037L46.8087 49.88C46.692 49.6233 46.5054 49.495 46.2487 49.495H42.3287C41.932 49.495 41.7337 49.6933 41.7337 50.09V71.405C41.7337 71.8017 41.932 72 42.3287 72H44.4637C44.697 72 44.8487 71.965 44.9187 71.895C45.012 71.8017 45.0587 71.6383 45.0587 71.405V53.695H45.1987L49.8537 66.54C49.9937 66.9133 50.2387 67.1 50.5887 67.1H52.8287C53.202 67.1 53.4587 66.9133 53.5987 66.54L58.1487 53.73H58.2887V71.405C58.2887 71.8017 58.487 72 58.8837 72H61.0537C61.4504 72 61.6487 71.8017 61.6487 71.405V50.09C61.6487 49.6933 61.4504 49.495 61.0537 49.495ZM67.3482 72H78.5482C78.9216 72 79.1082 71.8017 79.1082 71.405V69.62C79.1082 69.2233 78.9216 69.025 78.5482 69.025H70.5682C70.2882 69.025 70.1482 68.8967 70.1482 68.64V62.41C70.1482 62.1767 70.2882 62.06 70.5682 62.06H77.3232C77.7432 62.06 77.9532 61.8617 77.9532 61.465V59.68C77.9532 59.2833 77.7432 59.085 77.3232 59.085H70.5682C70.2882 59.085 70.1482 58.9683 70.1482 58.735V52.82C70.1482 52.5867 70.2882 52.47 70.5682 52.47H78.5482C78.9216 52.47 79.1082 52.2717 79.1082 51.875V50.09C79.1082 49.6933 78.9216 49.495 78.5482 49.495H67.3482C66.9516 49.495 66.7532 49.6933 66.7532 50.09V71.405C66.7532 71.8017 66.9516 72 67.3482 72Z" fill="white"/>
<path d="M85.3889 1.1L84.8744 0.242508L84.8167 0.277114L84.7642 0.319132L85.3889 1.1ZM86.3639 1.175L86.8279 0.289169L86.8195 0.284792L86.8111 0.280573L86.3639 1.175ZM109.989 13.55L109.525 14.4358L109.996 14.6829L110.465 14.4295L109.989 13.55ZM131.889 1.7L132.365 2.5795L132.375 2.57399L132.385 2.56825L131.889 1.7ZM132.789 1.625L133.344 0.792961L133.324 0.779756L133.303 0.767508L132.789 1.625ZM131.964 9.95L131.538 9.04518L131.529 9.04952L131.52 9.05404L131.964 9.95ZM114.564 18.575L114.12 17.679L113.564 17.9546V18.575H114.564ZM114.564 18.875H113.564V19.4954L114.12 19.771L114.564 18.875ZM131.964 27.5L132.432 26.6162L132.42 26.61L132.408 26.604L131.964 27.5ZM132.789 35.825L132.342 34.9306L132.286 34.9584L132.234 34.9929L132.789 35.825ZM131.814 35.9L131.332 36.7763L131.375 36.7999L131.42 36.8191L131.814 35.9ZM109.989 23.9L110.471 23.0237L110 22.7647L109.524 23.0148L109.989 23.9ZM86.4389 36.275L86.8861 37.1694L86.8951 37.1649L86.904 37.1602L86.4389 36.275ZM85.3889 36.35L84.8744 37.2075L84.9073 37.2273L84.9416 37.2444L85.3889 36.35ZM86.2139 28.1L86.6147 29.0162L86.6396 29.0052L86.664 28.993L86.2139 28.1ZM104.514 18.875L104.964 19.768L105.514 19.4908V18.875H104.514ZM104.514 18.575H105.514V17.9592L104.964 17.682L104.514 18.575ZM86.2139 9.35L86.664 8.45704L86.6396 8.44477L86.6147 8.43385L86.2139 9.35ZM88.0889 46.2025L87.3905 45.4867L87.3817 45.4954L88.0889 46.2025ZM130.164 46.2025L130.871 45.4954L130.871 45.4954L130.164 46.2025ZM130.164 72.1525L129.457 71.4454L129.448 71.4542L130.164 72.1525ZM88.0889 72.1525L87.3817 72.8596L87.3817 72.8597L88.0889 72.1525ZM16.365 70.565L17.0721 71.2721L17.0721 71.2721L16.365 70.565ZM16.365 50.93L15.6492 51.6283L15.6578 51.6372L15.6667 51.6458L16.365 50.93ZM4.605 50.93L3.89789 50.2229L3.89789 50.2229L4.605 50.93ZM4.605 70.565L3.88916 71.2634L3.89789 71.2721L4.605 70.565ZM24.4139 71.405L23.4541 71.1244L23.4466 71.15L23.4405 71.176L24.4139 71.405ZM25.7439 66.855V65.855H24.9944L24.7841 66.5744L25.7439 66.855ZM33.4439 66.855L34.4037 66.5744L34.1934 65.855H33.4439V66.855ZM34.7739 71.405L35.7545 71.2089L35.746 71.1662L35.7337 71.1244L34.7739 71.405ZM34.9489 71.895L34.1489 72.495L34.2346 72.6093L34.3489 72.695L34.9489 71.895ZM38.2739 71.405L39.2473 71.176L39.2419 71.153L39.2354 71.1303L38.2739 71.405ZM32.1839 50.09L31.2105 50.319L31.2159 50.342L31.2224 50.3647L32.1839 50.09ZM27.0039 50.09L26.0445 49.8078L26.0424 49.8153L27.0039 50.09ZM20.9139 71.405L19.9524 71.1303L19.9459 71.153L19.9405 71.176L20.9139 71.405ZM29.5239 52.855V51.855H28.7618L28.5597 52.5898L29.5239 52.855ZM26.4439 64.055L25.4797 63.7898L25.1318 65.055H26.4439V64.055ZM29.6639 52.855L30.6273 52.587L30.4237 51.855H29.6639V52.855ZM32.7789 64.055V65.055H34.095L33.7423 63.787L32.7789 64.055ZM56.6087 49.88L57.5503 50.2166L57.5779 50.1395L57.5926 50.0589L56.6087 49.88ZM51.7787 63.39V64.39H52.4832L52.7203 63.7266L51.7787 63.39ZM51.6037 63.39L50.6613 63.7245L50.8975 64.39H51.6037V63.39ZM46.8087 49.88L47.7511 49.5455L47.7368 49.5052L47.7191 49.4662L46.8087 49.88ZM45.0587 53.695V52.695H44.0587V53.695H45.0587ZM45.1987 53.695L46.1389 53.3543L45.9 52.695H45.1987V53.695ZM49.8537 66.54L48.9135 66.8807L48.9174 66.8911L49.8537 66.54ZM53.5987 66.54L54.535 66.8911L54.5381 66.8829L54.541 66.8747L53.5987 66.54ZM58.1487 53.73V52.73H57.4427L57.2064 53.3953L58.1487 53.73ZM58.2887 53.73H59.2887V52.73H58.2887V53.73ZM84.0139 2V7.55H86.0139V2H84.0139ZM84.7642 0.319132C84.2189 0.755355 84.0139 1.3793 84.0139 2H86.0139C86.0139 1.90245 86.0292 1.86313 86.0307 1.85962C86.0313 1.85817 86.0297 1.86223 86.0248 1.86875C86.0199 1.87533 86.0153 1.87951 86.0136 1.88087L84.7642 0.319132ZM86.8111 0.280573C86.278 0.0140388 85.5517 -0.163875 84.8744 0.242508L85.9034 1.95749C85.8715 1.97661 85.8365 1.99017 85.8028 1.99749C85.7702 2.00459 85.7487 2.00371 85.7434 2.00331C85.7391 2.00297 85.751 2.00339 85.7815 2.01288C85.8121 2.02238 85.8569 2.03954 85.9166 2.06943L86.8111 0.280573ZM110.453 12.6642L86.8279 0.289169L85.8998 2.06083L109.525 14.4358L110.453 12.6642ZM131.413 0.820499L109.513 12.6705L110.465 14.4295L132.365 2.5795L131.413 0.820499ZM133.303 0.767508C132.629 0.362944 131.921 0.529849 131.393 0.831754L132.385 2.56825C132.474 2.51732 132.495 2.5248 132.459 2.5278C132.439 2.52948 132.408 2.529 132.37 2.52045C132.332 2.51182 132.3 2.4976 132.274 2.48249L133.303 0.767508ZM134.239 2.525C134.239 1.83368 133.956 1.20109 133.344 0.792961L132.234 2.45704C132.245 2.46407 132.246 2.46651 132.242 2.46271C132.239 2.45861 132.235 2.45281 132.232 2.44722C132.229 2.44194 132.231 2.4427 132.233 2.45329C132.235 2.46443 132.239 2.48734 132.239 2.525H134.239ZM134.239 7.85V2.525H132.239V7.85H134.239ZM132.39 10.8548C132.966 10.5838 133.446 10.1857 133.775 9.64398C134.101 9.10622 134.239 8.49255 134.239 7.85H132.239C132.239 8.20745 132.164 8.44378 132.065 8.60602C131.969 8.76432 131.812 8.91619 131.538 9.04518L132.39 10.8548ZM115.008 19.471L132.408 10.846L131.52 9.05404L114.12 17.679L115.008 19.471ZM115.564 18.875V18.575H113.564V18.875H115.564ZM132.408 26.604L115.008 17.979L114.12 19.771L131.52 28.396L132.408 26.604ZM134.239 29.45C134.239 28.8497 134.086 28.2807 133.757 27.7778C133.432 27.2812 132.971 26.9017 132.432 26.6162L131.496 28.3838C131.807 28.5483 131.983 28.7188 132.083 28.8723C132.179 29.0193 132.239 29.2003 132.239 29.45H134.239ZM134.239 35V29.45H132.239V35H134.239ZM133.236 36.7194C133.555 36.5599 133.824 36.3148 134.004 35.9851C134.179 35.6656 134.239 35.3221 134.239 35H132.239C132.239 35.0779 132.224 35.072 132.248 35.0274C132.261 35.005 132.278 34.982 132.299 34.9621C132.32 34.9426 132.336 34.9332 132.342 34.9306L133.236 36.7194ZM131.42 36.8191C132.06 37.0933 132.744 37.0568 133.344 36.6571L132.234 34.9929C132.221 35.0019 132.216 35.0028 132.22 35.0013C132.222 35.0006 132.226 34.9996 132.23 34.9987C132.234 34.9977 132.239 34.997 132.243 34.9967C132.253 34.996 132.257 34.9971 132.254 34.9964C132.25 34.9956 132.235 34.9923 132.208 34.9809L131.42 36.8191ZM109.507 24.7763L131.332 36.7763L132.296 35.0237L110.471 23.0237L109.507 24.7763ZM86.904 37.1602L110.454 24.7852L109.524 23.0148L85.9737 35.3898L86.904 37.1602ZM84.9416 37.2444C85.6114 37.5793 86.3063 37.4593 86.8861 37.1694L85.9916 35.3806C85.8781 35.4374 85.8187 35.4453 85.8051 35.4463C85.7994 35.4467 85.8027 35.4459 85.8121 35.4477C85.8218 35.4495 85.8305 35.4528 85.8361 35.4556L84.9416 37.2444ZM84.0139 35.45C84.0139 36.0476 84.1821 36.7922 84.8744 37.2075L85.9033 35.4925C85.9375 35.513 85.9684 35.5397 85.993 35.5692C86.0169 35.5978 86.0276 35.6205 86.0307 35.6279C86.0334 35.6344 86.0288 35.6256 86.0237 35.595C86.0186 35.5644 86.0139 35.5171 86.0139 35.45H84.0139ZM84.0139 29.825V35.45H86.0139V29.825H84.0139ZM85.813 27.1838C85.2853 27.4147 84.8216 27.7503 84.4929 28.2227C84.1603 28.7009 84.0139 29.2509 84.0139 29.825H86.0139C86.0139 29.5991 86.0674 29.4616 86.1348 29.3648C86.2061 29.2623 86.3424 29.1353 86.6147 29.0162L85.813 27.1838ZM104.064 17.982L85.7637 27.207L86.664 28.993L104.964 19.768L104.064 17.982ZM103.514 18.575V18.875H105.514V18.575H103.514ZM85.7637 10.243L104.064 19.468L104.964 17.682L86.664 8.45704L85.7637 10.243ZM84.0139 7.55C84.0139 8.13642 84.1539 8.70033 84.4818 9.1922C84.8085 9.68226 85.2749 10.0307 85.813 10.2662L86.6147 8.43385C86.3528 8.31926 86.2192 8.19274 86.1459 8.0828C86.0738 7.97467 86.0139 7.81359 86.0139 7.55H84.0139ZM92.3889 62.4025V55.8775H90.3889V62.4025H92.3889ZM96.9389 66.8775C95.2396 66.8775 94.1495 66.4587 93.4786 65.7969C92.8103 65.1376 92.3889 64.0699 92.3889 62.4025H90.3889C90.3889 64.3852 90.8924 66.055 92.0741 67.2207C93.2532 68.3839 94.9381 68.8775 96.9389 68.8775V66.8775ZM121.314 66.8775H96.9389V68.8775H121.314V66.8775ZM125.864 62.4025C125.864 64.0699 125.442 65.1376 124.774 65.7969C124.103 66.4587 123.013 66.8775 121.314 66.8775V68.8775C123.315 68.8775 125 68.3839 126.179 67.2207C127.36 66.055 127.864 64.3852 127.864 62.4025H125.864ZM125.864 55.8775V62.4025H127.864V55.8775H125.864ZM121.314 51.4775C123.016 51.4775 124.109 51.8919 124.779 52.5443C125.444 53.1917 125.864 54.2387 125.864 55.8775H127.864C127.864 53.9163 127.358 52.2634 126.174 51.1108C124.994 49.9632 123.311 49.4775 121.314 49.4775V51.4775ZM96.9389 51.4775H121.314V49.4775H96.9389V51.4775ZM92.3889 55.8775C92.3889 54.2387 92.8083 53.1917 93.4737 52.5443C94.1442 51.8919 95.2362 51.4775 96.9389 51.4775V49.4775C94.9415 49.4775 93.2585 49.9632 92.079 51.1108C90.8944 52.2634 90.3889 53.9163 90.3889 55.8775H92.3889ZM84.0139 54.8275V63.5275H86.0139V54.8275H84.0139ZM87.3817 45.4954C85.0961 47.7811 84.0139 50.9392 84.0139 54.8275H86.0139C86.0139 51.3159 86.9816 48.724 88.796 46.9096L87.3817 45.4954ZM96.6389 42.2025C92.8028 42.2025 89.6748 43.2582 87.3905 45.4868L88.7872 46.9183C90.6029 45.1469 93.1749 44.2025 96.6389 44.2025V42.2025ZM121.614 42.2025H96.6389V44.2025H121.614V42.2025ZM130.871 45.4954C128.631 43.2553 125.494 42.2025 121.614 42.2025V44.2025C125.134 44.2025 127.697 45.1498 129.457 46.9096L130.871 45.4954ZM134.239 54.8275C134.239 50.9392 133.157 47.7811 130.871 45.4954L129.457 46.9096C131.271 48.724 132.239 51.3159 132.239 54.8275H134.239ZM134.239 63.5275V54.8275H132.239V63.5275H134.239ZM130.871 72.8596C133.157 70.574 134.239 67.4159 134.239 63.5275H132.239C132.239 67.0392 131.271 69.6311 129.457 71.4454L130.871 72.8596ZM121.614 76.2275C125.501 76.2275 128.641 75.1457 130.88 72.8509L129.448 71.4542C127.687 73.2593 125.127 74.2275 121.614 74.2275V76.2275ZM96.6389 76.2275H121.614V74.2275H96.6389V76.2275ZM87.3817 72.8597C89.6649 75.1428 92.796 76.2275 96.6389 76.2275V74.2275C93.1817 74.2275 90.6128 73.2623 88.796 71.4454L87.3817 72.8597ZM84.0139 63.5275C84.0139 67.4159 85.0961 70.574 87.3817 72.8596L88.796 71.4454C86.9816 69.6311 86.0139 67.0392 86.0139 63.5275H84.0139ZM10.3 40H13.45V38H10.3V40ZM8.4 38.15C8.4 38.6025 8.52257 39.1218 8.93838 39.5145C9.34346 39.8971 9.85965 40 10.3 40V38C10.2256 38 10.1996 37.9909 10.2065 37.993C10.2176 37.9965 10.2619 38.0135 10.3116 38.0605C10.3626 38.1086 10.3888 38.1595 10.3992 38.1891C10.4078 38.2132 10.4 38.2062 10.4 38.15H8.4ZM8.4 11.6V38.15H10.4V11.6H8.4ZM8.9 12.1C8.90016 12.1 8.89983 12.1 8.89999 12.1C8.90015 12.1 8.89982 12.1 8.89998 12.1C8.89996 12.1 8.89994 12.1 8.89991 12.1C8.89985 12.1 8.89976 12.1 8.89963 12.1C8.89939 12.1 8.89902 12.1 8.89852 12.1C8.89754 12.0999 8.89603 12.0999 8.89403 12.0997C8.89006 12.0995 8.88389 12.0989 8.87577 12.0978C8.85968 12.0955 8.83439 12.0906 8.80252 12.0799C8.73532 12.0575 8.64839 12.0126 8.56789 11.9321C8.4874 11.8516 8.44247 11.7647 8.42007 11.6975C8.40944 11.6656 8.40454 11.6403 8.40224 11.6242C8.40108 11.6161 8.40053 11.6099 8.40026 11.606C8.40013 11.604 8.40006 11.6025 8.40003 11.6015C8.40002 11.601 8.40001 11.6006 8.4 11.6004C8.4 11.6002 8.4 11.6002 8.4 11.6001C8.4 11.6001 8.4 11.6 8.4 11.6C8.4 11.6002 8.4 11.5998 8.4 11.6C8.4 11.6002 8.4 11.5998 8.4 11.6H10.4C10.4 11.2792 10.3191 10.8549 9.98211 10.5179C9.64509 10.1809 9.22081 10.1 8.9 10.1V12.1ZM2.6 12.1H8.9V10.1H2.6V12.1ZM0.7 10.25C0.7 10.7025 0.822567 11.2218 1.23838 11.6145C1.64346 11.9971 2.15965 12.1 2.6 12.1V10.1C2.52558 10.1 2.49963 10.0909 2.50654 10.093C2.51759 10.0965 2.56189 10.1135 2.61162 10.1605C2.66259 10.2086 2.68881 10.2595 2.69924 10.2891C2.70776 10.3132 2.7 10.3062 2.7 10.25H0.7ZM0.7 7.7V10.25H2.7V7.7H0.7ZM2.6 5.85C2.15965 5.85 1.64346 5.95291 1.23838 6.33549C0.822567 6.72819 0.7 7.24745 0.7 7.7H2.7C2.7 7.64379 2.70776 7.6368 2.69924 7.66095C2.68881 7.69051 2.66259 7.74138 2.61162 7.78951C2.56189 7.83649 2.51759 7.85349 2.50654 7.85697C2.49963 7.85915 2.52558 7.85 2.6 7.85V5.85ZM21.15 5.85H2.6V7.85H21.15V5.85ZM23.05 7.7C23.05 7.24745 22.9274 6.7282 22.5116 6.33549C22.1065 5.95291 21.5904 5.85 21.15 5.85V7.85C21.2244 7.85 21.2504 7.85915 21.2435 7.85697C21.2324 7.85349 21.1881 7.83649 21.1384 7.78951C21.0874 7.74138 21.0612 7.69051 21.0508 7.66094C21.0422 7.6368 21.05 7.64379 21.05 7.7H23.05ZM23.05 10.25V7.7H21.05V10.25H23.05ZM21.15 12.1C21.5904 12.1 22.1065 11.9971 22.5116 11.6145C22.9274 11.2218 23.05 10.7025 23.05 10.25H21.05C21.05 10.3062 21.0422 10.3132 21.0508 10.2891C21.0612 10.2595 21.0874 10.2086 21.1384 10.1605C21.1881 10.1135 21.2324 10.0965 21.2435 10.093C21.2504 10.0909 21.2244 10.1 21.15 10.1V12.1ZM14.85 12.1H21.15V10.1H14.85V12.1ZM15.3 11.6C15.3 11.6133 15.2919 11.7997 15.1102 11.9649C14.9465 12.1138 14.7985 12.1 14.85 12.1V10.1C14.5349 10.1 14.1119 10.1696 13.7648 10.4851C13.3997 10.817 13.3 11.2533 13.3 11.6H15.3ZM15.3 38.15V11.6H13.3V38.15H15.3ZM13.45 40C13.8875 40 14.3993 39.89 14.7946 39.4946C15.19 39.0993 15.3 38.5875 15.3 38.15H13.3C13.3 38.2113 13.292 38.2243 13.2982 38.2056C13.306 38.1822 13.3291 38.1317 13.3804 38.0804C13.4317 38.0291 13.4822 38.006 13.5056 37.9982C13.5243 37.992 13.5113 38 13.45 38V40ZM27.1797 40H30.3297V38H27.1797V40ZM25.3297 38.15C25.3297 38.5875 25.4397 39.0993 25.8351 39.4946C26.2304 39.89 26.7422 40 27.1797 40V38C27.1184 38 27.1054 37.992 27.124 37.9982C27.1475 38.006 27.198 38.0291 27.2493 38.0804C27.3006 38.1317 27.3237 38.1822 27.3315 38.2056C27.3377 38.2243 27.3297 38.2113 27.3297 38.15H25.3297ZM25.3297 7.7V38.15H27.3297V7.7H25.3297ZM27.1797 5.85C26.7422 5.85 26.2304 5.96005 25.8351 6.35539C25.4397 6.75074 25.3297 7.26252 25.3297 7.7H27.3297C27.3297 7.63868 27.3377 7.62574 27.3315 7.64435C27.3237 7.66781 27.3006 7.71828 27.2493 7.76961C27.198 7.82094 27.1475 7.84399 27.124 7.85181C27.1054 7.85801 27.1184 7.85 27.1797 7.85V5.85ZM30.3297 5.85H27.1797V7.85H30.3297V5.85ZM32.1797 7.7C32.1797 7.26252 32.0696 6.75074 31.6743 6.35539C31.2789 5.96005 30.7672 5.85 30.3297 5.85V7.85C30.391 7.85 30.4039 7.85801 30.3853 7.85181C30.3619 7.84399 30.3114 7.82094 30.2601 7.76961C30.2088 7.71828 30.1857 7.66781 30.1779 7.64435C30.1717 7.62574 30.1797 7.63868 30.1797 7.7H32.1797ZM32.1797 20.2V7.7H30.1797V20.2H32.1797ZM31.7797 19.7C31.6939 19.7 31.8158 19.6784 31.9699 19.8068C32.0519 19.8751 32.1112 19.9612 32.1457 20.0474C32.1777 20.1274 32.1797 20.1854 32.1797 20.2H30.1797C30.1797 20.5736 30.3005 21.019 30.6895 21.3432C31.0436 21.6383 31.4654 21.7 31.7797 21.7V19.7ZM42.3297 19.7H31.7797V21.7H42.3297V19.7ZM41.8297 20.2C41.8297 20.2 41.8297 20.2 41.8297 20.2C41.8297 20.2 41.8297 20.1999 41.8297 20.1999C41.8297 20.1998 41.8297 20.1998 41.8297 20.1996C41.8297 20.1994 41.8297 20.199 41.8297 20.1985C41.8298 20.1975 41.8298 20.196 41.83 20.194C41.8302 20.1901 41.8308 20.1839 41.8319 20.1758C41.8342 20.1597 41.8391 20.1344 41.8498 20.1025C41.8722 20.0353 41.9171 19.9484 41.9976 19.8679C42.0781 19.7874 42.165 19.7425 42.2322 19.7201C42.2641 19.7094 42.2894 19.7045 42.3055 19.7022C42.3136 19.7011 42.3197 19.7005 42.3237 19.7003C42.3257 19.7001 42.3272 19.7001 42.3282 19.7C42.3287 19.7 42.3291 19.7 42.3293 19.7C42.3294 19.7 42.3295 19.7 42.3296 19.7C42.3296 19.7 42.3297 19.7 42.3297 19.7C42.3295 19.7 42.3298 19.7 42.3297 19.7C42.3295 19.7 42.3299 19.7 42.3297 19.7V21.7C42.6505 21.7 43.0748 21.6191 43.4118 21.2821C43.7488 20.9451 43.8297 20.5208 43.8297 20.2H41.8297ZM41.8297 7.7V20.2H43.8297V7.7H41.8297ZM43.6797 5.85C43.2422 5.85 42.7304 5.96005 42.3351 6.35539C41.9397 6.75074 41.8297 7.26252 41.8297 7.7H43.8297C43.8297 7.63868 43.8377 7.62574 43.8315 7.64435C43.8237 7.66781 43.8006 7.71828 43.7493 7.76961C43.698 7.82094 43.6475 7.84399 43.624 7.85181C43.6054 7.85801 43.6184 7.85 43.6797 7.85V5.85ZM46.8797 5.85H43.6797V7.85H46.8797V5.85ZM48.7297 7.7C48.7297 7.26252 48.6196 6.75074 48.2243 6.35539C47.8289 5.96005 47.3172 5.85 46.8797 5.85V7.85C46.941 7.85 46.954 7.85801 46.9353 7.85181C46.9119 7.84399 46.8614 7.82094 46.8101 7.76961C46.7588 7.71828 46.7357 7.66781 46.7279 7.64435C46.7217 7.62574 46.7297 7.63868 46.7297 7.7H48.7297ZM48.7297 38.15V7.7H46.7297V38.15H48.7297ZM46.8797 40C47.3172 40 47.8289 39.89 48.2243 39.4946C48.6196 39.0993 48.7297 38.5875 48.7297 38.15H46.7297C46.7297 38.2113 46.7217 38.2243 46.7279 38.2056C46.7357 38.1822 46.7588 38.1317 46.8101 38.0804C46.8614 38.0291 46.9119 38.006 46.9353 37.9982C46.954 37.992 46.941 38 46.8797 38V40ZM43.6797 40H46.8797V38H43.6797V40ZM41.8297 38.15C41.8297 38.5875 41.9397 39.0993 42.3351 39.4946C42.7304 39.89 43.2422 40 43.6797 40V38C43.6184 38 43.6054 37.992 43.624 37.9982C43.6475 38.006 43.698 38.0291 43.7493 38.0804C43.8006 38.1317 43.8237 38.1822 43.8315 38.2056C43.8377 38.2243 43.8297 38.2113 43.8297 38.15H41.8297ZM41.8297 25.5V38.15H43.8297V25.5H41.8297ZM42.3297 26C42.3297 26 42.3297 26 42.3297 26C42.3297 26 42.3296 26 42.3296 26C42.3295 26 42.3294 26 42.3293 26C42.3291 26 42.3287 26 42.3282 26C42.3272 25.9999 42.3257 25.9999 42.3237 25.9997C42.3197 25.9995 42.3136 25.9989 42.3055 25.9978C42.2894 25.9955 42.2641 25.9906 42.2322 25.9799C42.165 25.9575 42.0781 25.9126 41.9976 25.8321C41.9171 25.7516 41.8722 25.6647 41.8498 25.5975C41.8391 25.5656 41.8342 25.5403 41.8319 25.5242C41.8308 25.5161 41.8302 25.5099 41.83 25.506C41.8298 25.504 41.8298 25.5025 41.8297 25.5015C41.8297 25.501 41.8297 25.5006 41.8297 25.5004C41.8297 25.5002 41.8297 25.5002 41.8297 25.5001C41.8297 25.5001 41.8297 25.5 41.8297 25.5C41.8297 25.5 41.8297 25.5 41.8297 25.5H43.8297C43.8297 25.1792 43.7488 24.7549 43.4118 24.4179C43.0748 24.0809 42.6505 24 42.3297 24V26ZM31.7797 26H42.3297V24H31.7797V26ZM32.1797 25.5C32.1797 25.5146 32.1777 25.5726 32.1457 25.6526C32.1112 25.7388 32.0519 25.8249 31.9699 25.8932C31.8158 26.0216 31.6939 26 31.7797 26V24C31.4654 24 31.0436 24.0617 30.6895 24.3568C30.3005 24.681 30.1797 25.1264 30.1797 25.5H32.1797ZM32.1797 38.15V25.5H30.1797V38.15H32.1797ZM30.3297 40C30.7672 40 31.2789 39.89 31.6743 39.4946C32.0696 39.0993 32.1797 38.5875 32.1797 38.15H30.1797C30.1797 38.2113 30.1717 38.2243 30.1779 38.2056C30.1857 38.1822 30.2088 38.1317 30.2601 38.0804C30.3114 38.0291 30.3619 38.006 30.3853 37.9982C30.4039 37.992 30.391 38 30.3297 38V40ZM55.8906 40H71.8906V38H55.8906V40ZM54.0406 38.15C54.0406 38.5875 54.1507 39.0993 54.546 39.4946C54.9414 39.89 55.4531 40 55.8906 40V38C55.8293 38 55.8164 37.992 55.835 37.9982C55.8584 38.006 55.9089 38.0291 55.9602 38.0804C56.0116 38.1317 56.0346 38.1822 56.0424 38.2056C56.0486 38.2243 56.0406 38.2113 56.0406 38.15H54.0406ZM54.0406 7.7V38.15H56.0406V7.7H54.0406ZM55.8906 5.85C55.4531 5.85 54.9414 5.96005 54.546 6.35539C54.1507 6.75074 54.0406 7.26252 54.0406 7.7H56.0406C56.0406 7.63868 56.0486 7.62574 56.0424 7.64435C56.0346 7.66781 56.0116 7.71828 55.9602 7.76961C55.9089 7.82094 55.8584 7.84399 55.835 7.85181C55.8164 7.85801 55.8293 7.85 55.8906 7.85V5.85ZM71.8906 5.85H55.8906V7.85H71.8906V5.85ZM73.6906 7.7C73.6906 7.27711 73.5923 6.77393 73.2188 6.37713C72.8346 5.96895 72.3275 5.85 71.8906 5.85V7.85C71.9382 7.85 71.9375 7.85664 71.9068 7.84575C71.8706 7.83294 71.8145 7.80321 71.7624 7.74787C71.6556 7.6344 71.6906 7.55622 71.6906 7.7H73.6906ZM73.6906 10.25V7.7H71.6906V10.25H73.6906ZM71.8906 12.1C72.3275 12.1 72.8346 11.9811 73.2188 11.5729C73.5923 11.1761 73.6906 10.6729 73.6906 10.25H71.6906C71.6906 10.3938 71.6556 10.3156 71.7624 10.2021C71.8145 10.1468 71.8706 10.1171 71.9068 10.1042C71.9375 10.0934 71.9382 10.1 71.8906 10.1V12.1ZM60.4906 12.1H71.8906V10.1H60.4906V12.1ZM60.8906 11.6C60.8906 11.6146 60.8886 11.6726 60.8566 11.7526C60.8221 11.8388 60.7628 11.9249 60.6808 11.9932C60.5267 12.1216 60.4049 12.1 60.4906 12.1V10.1C60.1764 10.1 59.7545 10.1617 59.4004 10.4568C59.0114 10.781 58.8906 11.2264 58.8906 11.6H60.8906ZM60.8906 20.05V11.6H58.8906V20.05H60.8906ZM60.4906 19.55C60.4049 19.55 60.5267 19.5284 60.6808 19.6568C60.7628 19.7251 60.8221 19.8112 60.8566 19.8974C60.8886 19.9774 60.8906 20.0354 60.8906 20.05H58.8906C58.8906 20.4236 59.0114 20.869 59.4004 21.1932C59.7545 21.4883 60.1764 21.55 60.4906 21.55V19.55ZM70.1406 19.55H60.4906V21.55H70.1406V19.55ZM72.0406 21.4C72.0406 20.9475 71.9181 20.4282 71.5022 20.0355C71.0972 19.6529 70.581 19.55 70.1406 19.55V21.55C70.215 21.55 70.241 21.5591 70.2341 21.557C70.223 21.5535 70.1787 21.5365 70.129 21.4895C70.078 21.4414 70.0518 21.3905 70.0414 21.3609C70.0329 21.3368 70.0406 21.3438 70.0406 21.4H72.0406ZM72.0406 23.95V21.4H70.0406V23.95H72.0406ZM70.1406 25.8C70.581 25.8 71.0972 25.6971 71.5022 25.3145C71.9181 24.9218 72.0406 24.4025 72.0406 23.95H70.0406C70.0406 24.0062 70.0329 24.0132 70.0414 23.9891C70.0518 23.9595 70.078 23.9086 70.129 23.8605C70.1787 23.8135 70.223 23.7965 70.2341 23.793C70.241 23.7909 70.215 23.8 70.1406 23.8V25.8ZM60.4906 25.8H70.1406V23.8H60.4906V25.8ZM60.8906 25.3C60.8906 25.3146 60.8886 25.3726 60.8566 25.4526C60.8221 25.5388 60.7628 25.6249 60.6808 25.6932C60.5267 25.8216 60.4049 25.8 60.4906 25.8V23.8C60.1764 23.8 59.7545 23.8617 59.4004 24.1568C59.0114 24.481 58.8906 24.9264 58.8906 25.3H60.8906ZM60.8906 34.2V25.3H58.8906V34.2H60.8906ZM60.4906 33.75C60.4242 33.75 60.561 33.7329 60.7163 33.8753C60.8882 34.0328 60.8906 34.2057 60.8906 34.2H58.8906C58.8906 34.5609 58.9931 35.0088 59.3649 35.3497C59.7202 35.6754 60.157 35.75 60.4906 35.75V33.75ZM71.8906 33.75H60.4906V35.75H71.8906V33.75ZM73.6906 35.6C73.6906 35.1771 73.5923 34.6739 73.2188 34.2771C72.8346 33.8689 72.3275 33.75 71.8906 33.75V35.75C71.9382 35.75 71.9375 35.7566 71.9068 35.7458C71.8706 35.7329 71.8145 35.7032 71.7624 35.6479C71.6556 35.5344 71.6906 35.4562 71.6906 35.6H73.6906ZM73.6906 38.15V35.6H71.6906V38.15H73.6906ZM71.8906 40C72.3275 40 72.8346 39.8811 73.2188 39.4729C73.5923 39.0761 73.6906 38.5729 73.6906 38.15H71.6906C71.6906 38.2938 71.6556 38.2156 71.7624 38.1021C71.8145 38.0468 71.8706 38.0171 71.9068 38.0042C71.9375 37.9934 71.9382 38 71.8906 38V40ZM12.375 71H8.63V73H12.375V71ZM15.6579 69.8579C14.9344 70.5814 13.8855 71 12.375 71V73C14.2712 73 15.8823 72.4619 17.0721 71.2721L15.6579 69.8579ZM16.8 66.575C16.8 68.0855 16.3814 69.1344 15.6579 69.8579L17.0721 71.2721C18.2619 70.0823 18.8 68.4712 18.8 66.575H16.8ZM16.8 60.695V66.575H18.8V60.695H16.8ZM17.065 60.96C17.1559 60.96 17.0403 60.982 16.9091 60.8509C16.778 60.7197 16.8 60.6041 16.8 60.695H18.8C18.8 60.2959 18.6995 59.8128 18.3234 59.4366C17.9472 59.0605 17.4641 58.96 17.065 58.96V60.96ZM11.185 60.96H17.065V58.96H11.185V60.96ZM11.59 60.555C11.59 60.5108 11.6004 60.6613 11.4459 60.8159C11.2913 60.9704 11.1408 60.96 11.185 60.96V58.96C10.8325 58.96 10.3845 59.0488 10.0316 59.4016C9.6788 59.7545 9.59 60.2025 9.59 60.555H11.59ZM11.59 62.34V60.555H9.59V62.34H11.59ZM11.185 61.935C11.1408 61.935 11.2913 61.9246 11.4459 62.0791C11.6004 62.2337 11.59 62.3842 11.59 62.34H9.59C9.59 62.6925 9.6788 63.1405 10.0316 63.4934C10.3845 63.8462 10.8325 63.935 11.185 63.935V61.935ZM14.02 61.935H11.185V63.935H14.02V61.935ZM15.405 63.285C15.405 62.9883 15.319 62.5895 14.9814 62.2826C14.6619 61.9921 14.2801 61.935 14.02 61.935V63.935C14.0165 63.935 13.8273 63.9363 13.6361 63.7624C13.4268 63.5722 13.405 63.3483 13.405 63.285H15.405ZM15.405 66.435V63.285H13.405V66.435H15.405ZM11.885 70.025C12.8862 70.025 13.8192 69.7661 14.4917 69.0749C15.1594 68.3887 15.405 67.4457 15.405 66.435H13.405C13.405 67.151 13.2306 67.503 13.0583 67.6801C12.8908 67.8522 12.5638 68.025 11.885 68.025V70.025ZM9.12 70.025H11.885V68.025H9.12V70.025ZM5.6 66.435C5.6 67.4457 5.84565 68.3887 6.51327 69.0749C7.18585 69.7661 8.1188 70.025 9.12 70.025V68.025C8.44121 68.025 8.11416 67.8522 7.94673 67.6801C7.77435 67.503 7.6 67.151 7.6 66.435H5.6ZM5.6 55.06V66.435H7.6V55.06H5.6ZM9.12 51.47C8.1188 51.47 7.18585 51.7289 6.51327 52.4201C5.84565 53.1063 5.6 54.0493 5.6 55.06H7.6C7.6 54.344 7.77435 53.992 7.94673 53.8149C8.11416 53.6428 8.44121 53.47 9.12 53.47V51.47ZM11.885 51.47H9.12V53.47H11.885V51.47ZM15.405 55.06C15.405 54.0493 15.1594 53.1063 14.4917 52.4201C13.8192 51.7289 12.8862 51.47 11.885 51.47V53.47C12.5638 53.47 12.8908 53.6428 13.0583 53.8149C13.2306 53.992 13.405 54.344 13.405 55.06H15.405ZM15.405 56.18V55.06H13.405V56.18H15.405ZM15 55.81C14.9709 55.81 15.1289 55.8051 15.2808 55.9659C15.4225 56.116 15.405 56.2496 15.405 56.18H13.405C13.405 56.5303 13.4867 56.979 13.8267 57.3391C14.1769 57.7099 14.6325 57.81 15 57.81V55.81ZM17.205 55.81H15V57.81H17.205V55.81ZM16.8 56.18C16.8 56.2496 16.7825 56.116 16.9242 55.9659C17.0761 55.8051 17.2341 55.81 17.205 55.81V57.81C17.5725 57.81 18.0281 57.7099 18.3783 57.3391C18.7183 56.979 18.8 56.5304 18.8 56.18H16.8ZM16.8 54.92V56.18H18.8V54.92H16.8ZM15.6667 51.6458C16.3785 52.3402 16.8 53.3803 16.8 54.92H18.8C18.8 53.0063 18.2649 51.3865 17.0633 50.2142L15.6667 51.6458ZM12.375 50.495C13.9147 50.495 14.9548 50.9165 15.6492 51.6283L17.0808 50.2317C15.9085 49.0301 14.2887 48.495 12.375 48.495V50.495ZM8.63 50.495H12.375V48.495H8.63V50.495ZM5.31211 51.6371C6.03311 50.9161 7.0917 50.495 8.63 50.495V48.495C6.71497 48.495 5.09022 49.0306 3.89789 50.2229L5.31211 51.6371ZM4.205 54.92C4.205 53.3735 4.6189 52.3303 5.31211 51.6371L3.89789 50.2229C2.72444 51.3963 2.205 53.0131 2.205 54.92H4.205ZM4.205 66.575V54.92H2.205V66.575H4.205ZM5.32078 69.8667C4.61601 69.1443 4.205 68.0923 4.205 66.575H2.205C2.205 68.4644 2.72733 70.0724 3.88922 71.2633L5.32078 69.8667ZM8.63 71C7.0917 71 6.03311 70.5789 5.31211 69.8579L3.89789 71.2721C5.09022 72.4644 6.71497 73 8.63 73V71ZM23.7839 71H21.2639V73H23.7839V71ZM23.4405 71.176C23.421 71.2589 23.4153 71.2041 23.4998 71.1242C23.5443 71.0822 23.5998 71.0472 23.6604 71.0248C23.7188 71.0032 23.7638 71 23.7839 71V73C24.1665 73 24.5577 72.8761 24.873 72.5783C25.1676 72.3001 25.3135 71.9478 25.3873 71.634L23.4405 71.176ZM24.7841 66.5744L23.4541 71.1244L25.3737 71.6856L26.7037 67.1356L24.7841 66.5744ZM33.4439 65.855H25.7439V67.855H33.4439V65.855ZM35.7337 71.1244L34.4037 66.5744L32.4841 67.1356L33.8141 71.6856L35.7337 71.1244ZM35.7489 71.295C35.7745 71.3291 35.7881 71.3548 35.793 71.3647C35.7982 71.375 35.7981 71.3766 35.7944 71.3662C35.7908 71.356 35.785 71.3382 35.7778 71.311C35.7707 71.284 35.7628 71.2502 35.7545 71.2089L33.7933 71.6011C33.845 71.8595 33.9367 72.2121 34.1489 72.495L35.7489 71.295ZM35.4039 71C35.3502 71 35.3391 70.9951 35.3575 70.9994C35.3745 71.0033 35.4534 71.0234 35.5489 71.095L34.3489 72.695C34.7067 72.9634 35.1298 73 35.4039 73V71ZM37.8889 71H35.4039V73H37.8889V71ZM37.3005 71.634C37.3092 71.671 37.3011 71.6569 37.3041 71.6066C37.3072 71.5528 37.3248 71.4367 37.4081 71.308C37.4967 71.1711 37.6182 71.0841 37.7268 71.0391C37.823 70.9992 37.8885 71 37.8889 71V73C38.2283 73 38.7606 72.8993 39.0872 72.3945C39.3761 71.948 39.314 71.4593 39.2473 71.176L37.3005 71.634ZM31.2224 50.3647L37.3124 71.6797L39.2354 71.1303L33.1454 49.8153L31.2224 50.3647ZM31.3439 50.495C31.4432 50.495 31.406 50.5165 31.3259 50.4598C31.2858 50.4314 31.2535 50.3958 31.2318 50.3612C31.2115 50.3288 31.2084 50.3101 31.2105 50.319L33.1573 49.861C33.0659 49.4722 32.857 49.0934 32.4819 48.8277C32.1218 48.5726 31.7113 48.495 31.3439 48.495V50.495ZM27.8439 50.495H31.3439V48.495H27.8439V50.495ZM27.9633 50.3722C27.9683 50.355 27.9684 50.3629 27.9541 50.3844C27.9386 50.4076 27.9136 50.4356 27.8794 50.4598C27.8071 50.511 27.769 50.495 27.8439 50.495V48.495C27.4755 48.495 27.0757 48.5782 26.7234 48.8277C26.3644 49.082 26.1529 49.4394 26.0445 49.8078L27.9633 50.3722ZM21.8754 71.6797L27.9654 50.3647L26.0424 49.8153L19.9524 71.1303L21.8754 71.6797ZM21.2639 71C21.277 71 21.3574 71.0011 21.4666 71.05C21.5898 71.1051 21.7111 71.2045 21.7933 71.3442C21.8688 71.4726 21.8808 71.5827 21.8825 71.6261C21.8842 71.6681 21.8776 71.6752 21.8873 71.634L19.9405 71.176C19.8764 71.4483 19.8111 71.919 20.0695 72.3583C20.3777 72.8823 20.9109 73 21.2639 73V71ZM28.5597 52.5898L25.4797 63.7898L27.4081 64.3202L30.4881 53.1202L28.5597 52.5898ZM29.6639 51.855H29.5239V53.855H29.6639V51.855ZM33.7423 63.787L30.6273 52.587L28.7005 53.123L31.8155 64.323L33.7423 63.787ZM26.4439 65.055H32.7789V63.055H26.4439V65.055ZM57.1337 50.495H61.0537V48.495H57.1337V50.495ZM57.5926 50.0589C57.58 50.1283 57.5255 50.281 57.3663 50.3977C57.226 50.5005 57.1124 50.495 57.1337 50.495V48.495C56.8517 48.495 56.4989 48.5536 56.1836 48.7848C55.8495 49.0299 55.6841 49.3751 55.6248 49.7011L57.5926 50.0589ZM52.7203 63.7266L57.5503 50.2166L55.6671 49.5434L50.8371 63.0534L52.7203 63.7266ZM51.6037 64.39H51.7787V62.39H51.6037V64.39ZM45.8663 50.2145L50.6613 63.7245L52.5461 63.0555L47.7511 49.5455L45.8663 50.2145ZM46.2487 50.495C46.2026 50.495 46.1096 50.4806 46.0147 50.4153C45.9256 50.3541 45.8969 50.2907 45.8983 50.2938L47.7191 49.4662C47.6038 49.2126 47.4235 48.9568 47.1477 48.7672C46.8661 48.5736 46.5515 48.495 46.2487 48.495V50.495ZM42.3287 50.495H46.2487V48.495H42.3287V50.495ZM42.7337 50.09C42.7337 50.0458 42.7441 50.1963 42.5896 50.3509C42.4351 50.5054 42.2845 50.495 42.3287 50.495V48.495C41.9762 48.495 41.5282 48.5838 41.1754 48.9366C40.8225 49.2895 40.7337 49.7375 40.7337 50.09H42.7337ZM42.7337 71.405V50.09H40.7337V71.405H42.7337ZM42.3287 71C42.2845 71 42.4351 70.9896 42.5896 71.1441C42.7441 71.2987 42.7337 71.4492 42.7337 71.405H40.7337C40.7337 71.7575 40.8225 72.2055 41.1754 72.5584C41.5282 72.9112 41.9762 73 42.3287 73V71ZM44.4637 71H42.3287V73H44.4637V71ZM44.2116 71.1879C44.2919 71.1076 44.3707 71.0619 44.4228 71.0372C44.4747 71.0126 44.5132 71.0027 44.5276 70.9994C44.5523 70.9937 44.5382 71 44.4637 71V73C44.6225 73 44.801 72.9888 44.9773 72.9481C45.1402 72.9106 45.4028 72.8251 45.6258 72.6021L44.2116 71.1879ZM44.0587 71.405C44.0587 71.4608 44.0525 71.4617 44.0622 71.4278C44.0725 71.3918 44.1084 71.2911 44.2116 71.1879L45.6258 72.6021C46.0071 72.2209 46.0587 71.716 46.0587 71.405H44.0587ZM44.0587 53.695V71.405H46.0587V53.695H44.0587ZM45.1987 52.695H45.0587V54.695H45.1987V52.695ZM50.7939 66.1993L46.1389 53.3543L44.2585 54.0357L48.9135 66.8807L50.7939 66.1993ZM50.5887 66.1C50.5905 66.1 50.6117 66.1003 50.6452 66.1109C50.6801 66.1218 50.7163 66.1401 50.7485 66.1646C50.8139 66.2144 50.8131 66.2504 50.79 66.1889L48.9174 66.8911C49.0343 67.2029 49.226 67.519 49.5364 67.7554C49.8564 67.9992 50.226 68.1 50.5887 68.1V66.1ZM52.8287 66.1H50.5887V68.1H52.8287V66.1ZM52.6624 66.1889C52.6435 66.2392 52.6468 66.1994 52.713 66.1513C52.7442 66.1286 52.7762 66.1141 52.8027 66.1062C52.8278 66.0988 52.8387 66.1 52.8287 66.1V68.1C53.1883 68.1 53.5615 68.0072 53.8894 67.7687C54.2123 67.5339 54.4139 67.2142 54.535 66.8911L52.6624 66.1889ZM57.2064 53.3953L52.6564 66.2053L54.541 66.8747L59.091 54.0647L57.2064 53.3953ZM58.2887 52.73H58.1487V54.73H58.2887V52.73ZM59.2887 71.405V53.73H57.2887V71.405H59.2887ZM58.8837 71C58.8395 71 58.9901 70.9896 59.1446 71.1441C59.2991 71.2987 59.2887 71.4492 59.2887 71.405H57.2887C57.2887 71.7575 57.3775 72.2055 57.7304 72.5584C58.0832 72.9112 58.5312 73 58.8837 73V71ZM61.0537 71H58.8837V73H61.0537V71ZM60.6487 71.405C60.6487 71.4492 60.6383 71.2987 60.7929 71.1441C60.9474 70.9896 61.0979 71 61.0537 71V73C61.4062 73 61.8542 72.9112 62.2071 72.5584C62.5599 72.2055 62.6487 71.7575 62.6487 71.405H60.6487ZM60.6487 50.09V71.405H62.6487V50.09H60.6487ZM61.0537 50.495C61.0979 50.495 60.9474 50.5054 60.7929 50.3509C60.6383 50.1963 60.6487 50.0458 60.6487 50.09H62.6487C62.6487 49.7375 62.5599 49.2895 62.2071 48.9366C61.8542 48.5838 61.4062 48.495 61.0537 48.495V50.495ZM78.5482 71H67.3482V73H78.5482V71ZM78.1082 71.405C78.1082 71.4638 78.0933 71.3218 78.24 71.1659C78.3976 70.9985 78.5647 71 78.5482 71V73C78.9051 73 79.3523 72.9023 79.6964 72.5366C80.0299 72.1823 80.1082 71.7429 80.1082 71.405H78.1082ZM78.1082 69.62V71.405H80.1082V69.62H78.1082ZM78.5482 70.025C78.5647 70.025 78.3976 70.0265 78.24 69.8591C78.0933 69.7032 78.1082 69.5612 78.1082 69.62H80.1082C80.1082 69.2821 80.0299 68.8427 79.6964 68.4884C79.3523 68.1227 78.9051 68.025 78.5482 68.025V70.025ZM70.5682 70.025H78.5482V68.025H70.5682V70.025ZM69.1482 68.64C69.1482 68.946 69.2357 69.3526 69.5775 69.6659C69.9029 69.9641 70.2946 70.025 70.5682 70.025V68.025C70.5715 68.025 70.6126 68.025 70.6767 68.0446C70.7446 68.0653 70.8381 68.1083 70.929 68.1916C71.1308 68.3766 71.1482 68.5907 71.1482 68.64H69.1482ZM69.1482 62.41V68.64H71.1482V62.41H69.1482ZM70.5682 61.06C70.314 61.06 69.9372 61.1092 69.6131 61.3793C69.254 61.6785 69.1482 62.0864 69.1482 62.41H71.1482C71.1482 62.5003 71.1124 62.7332 70.8934 62.9157C70.7093 63.0691 70.5425 63.06 70.5682 63.06V61.06ZM77.3232 61.06H70.5682V63.06H77.3232V61.06ZM76.9532 61.465C76.9532 61.4941 76.9483 61.3361 77.1091 61.1842C77.2592 61.0425 77.3929 61.06 77.3232 61.06V63.06C77.6736 63.06 78.1223 62.9783 78.4824 62.6383C78.8532 62.2881 78.9532 61.8325 78.9532 61.465H76.9532ZM76.9532 59.68V61.465H78.9532V59.68H76.9532ZM77.3232 60.085C77.3929 60.085 77.2592 60.1025 77.1091 59.9608C76.9483 59.8089 76.9532 59.6509 76.9532 59.68H78.9532C78.9532 59.3125 78.8532 58.8569 78.4824 58.5067C78.1223 58.1667 77.6736 58.085 77.3232 58.085V60.085ZM70.5682 60.085H77.3232V58.085H70.5682V60.085ZM69.1482 58.735C69.1482 59.0586 69.254 59.4665 69.6131 59.7657C69.9372 60.0358 70.314 60.085 70.5682 60.085V58.085C70.5425 58.085 70.7093 58.0759 70.8934 58.2293C71.1124 58.4118 71.1482 58.6447 71.1482 58.735H69.1482ZM69.1482 52.82V58.735H71.1482V52.82H69.1482ZM70.5682 51.47C70.314 51.47 69.9372 51.5192 69.6131 51.7893C69.254 52.0885 69.1482 52.4964 69.1482 52.82H71.1482C71.1482 52.9103 71.1124 53.1432 70.8934 53.3257C70.7093 53.4791 70.5425 53.47 70.5682 53.47V51.47ZM78.5482 51.47H70.5682V53.47H78.5482V51.47ZM78.1082 51.875C78.1082 51.9338 78.0933 51.7918 78.24 51.6359C78.3976 51.4685 78.5647 51.47 78.5482 51.47V53.47C78.9051 53.47 79.3523 53.3723 79.6964 53.0066C80.0299 52.6523 80.1082 52.2129 80.1082 51.875H78.1082ZM78.1082 50.09V51.875H80.1082V50.09H78.1082ZM78.5482 50.495C78.5647 50.495 78.3976 50.4965 78.24 50.3291C78.0933 50.1732 78.1082 50.0312 78.1082 50.09H80.1082C80.1082 49.7521 80.0299 49.3127 79.6964 48.9584C79.3523 48.5927 78.9051 48.495 78.5482 48.495V50.495ZM67.3482 50.495H78.5482V48.495H67.3482V50.495ZM67.7532 50.09C67.7532 50.0458 67.7636 50.1963 67.6091 50.3509C67.4546 50.5054 67.3041 50.495 67.3482 50.495V48.495C66.9958 48.495 66.5477 48.5838 66.1949 48.9366C65.842 49.2895 65.7532 49.7375 65.7532 50.09H67.7532ZM67.7532 71.405V50.09H65.7532V71.405H67.7532ZM67.3482 71C67.3041 71 67.4546 70.9896 67.6091 71.1441C67.7636 71.2987 67.7532 71.4492 67.7532 71.405H65.7532C65.7532 71.7575 65.842 72.2055 66.1949 72.5584C66.5477 72.9112 66.9958 73 67.3482 73V71Z" fill="black" mask="url(#path-1-outside-1_6_12)"/>
</svg>
