<svg width="25" height="99" viewBox="0 0 25 99" fill="none" xmlns="http://www.w3.org/2000/svg">
<path d="M18.768 98.138H18.008C17.476 98.138 17.21 97.872 17.21 97.34V94.11C17.21 93.578 17.476 93.312 18.008 93.312H18.312C19.2747 93.312 19.9333 93.122 20.288 92.742C20.6427 92.362 20.82 91.6653 20.82 90.652V88.866C20.82 87.878 20.63 87.194 20.25 86.814C19.87 86.4087 19.1607 86.206 18.122 86.206H17.666C16.9313 86.206 16.374 86.51 15.994 87.118C15.5887 87.7007 15.348 88.4353 15.272 89.322C15.196 90.2087 15.0567 91.1713 14.854 92.21C14.626 93.2233 14.3473 94.1733 14.018 95.06C13.6633 95.9467 12.992 96.694 12.004 97.302C10.9907 97.8847 9.69867 98.176 8.128 98.176H6.798C4.822 98.176 3.28933 97.6187 2.2 96.504C1.11067 95.3893 0.566 93.844 0.566 91.868V88.068C0.566 86.0667 1.11067 84.5087 2.2 83.394C3.28933 82.2793 4.822 81.722 6.798 81.722H7.52C8.052 81.722 8.318 81.988 8.318 82.52V85.75C8.318 86.282 8.052 86.548 7.52 86.548H7.292C6.304 86.548 5.63267 86.738 5.278 87.118C4.92333 87.498 4.746 88.1947 4.746 89.208V90.69C4.746 91.7287 4.94867 92.438 5.354 92.818C5.734 93.1727 6.494 93.35 7.634 93.35H8.356C9.54667 93.35 10.2307 92.3113 10.408 90.234C10.5853 88.0807 11.016 86.168 11.7 84.496C12.08 83.6093 12.764 82.8747 13.752 82.292C14.7147 81.684 15.956 81.38 17.476 81.38H18.768C20.744 81.38 22.2767 81.9373 23.366 83.052C24.4553 84.1667 25 85.712 25 87.688V91.83C25 93.806 24.4553 95.3513 23.366 96.466C22.2767 97.5807 20.744 98.138 18.768 98.138ZM25 67.0136V71.1556C25 73.157 24.468 74.7023 23.404 75.7916C22.34 76.881 20.8073 77.4256 18.806 77.4256H6.76C4.75867 77.4256 3.226 76.881 2.162 75.7916C1.098 74.7023 0.566 73.157 0.566 71.1556V67.0136C0.566 65.0376 1.11067 63.505 2.2 62.4156C3.264 61.301 4.784 60.7436 6.76 60.7436H8.546C9.10333 60.7436 9.382 61.0223 9.382 61.5796V64.7716C9.382 65.3036 9.10333 65.5696 8.546 65.5696H6.988C6.17733 65.5696 5.60733 65.747 5.278 66.1016C4.92333 66.431 4.746 67.001 4.746 67.8116V70.3956C4.746 71.181 4.92333 71.751 5.278 72.1056C5.60733 72.435 6.17733 72.5996 6.988 72.5996H18.578C19.3887 72.5996 19.9713 72.435 20.326 72.1056C20.6553 71.751 20.82 71.181 20.82 70.3956V67.8116C20.82 67.001 20.6553 66.431 20.326 66.1016C19.9713 65.747 19.3887 65.5696 18.578 65.5696H17.02C16.4627 65.5696 16.184 65.3036 16.184 64.7716V61.5796C16.184 61.0223 16.4627 60.7436 17.02 60.7436H18.806C20.782 60.7436 22.3147 61.301 23.404 62.4156C24.468 63.505 25 65.0376 25 67.0136ZM20.82 49.9484V47.2504C20.82 46.4397 20.6553 45.8697 20.326 45.5404C19.9713 45.1857 19.3887 45.0084 18.578 45.0084H6.988C6.17733 45.0084 5.60733 45.1857 5.278 45.5404C4.92333 45.8697 4.746 46.4397 4.746 47.2504V49.9484C4.746 50.759 4.92333 51.329 5.278 51.6584C5.60733 51.9877 6.17733 52.1524 6.988 52.1524H18.578C19.3887 52.1524 19.9713 51.9877 20.326 51.6584C20.6553 51.329 20.82 50.759 20.82 49.9484ZM25 46.4524V50.7084C25 52.7097 24.468 54.255 23.404 55.3444C22.34 56.4337 20.8073 56.9784 18.806 56.9784H6.76C4.75867 56.9784 3.226 56.4337 2.162 55.3444C1.098 54.255 0.566 52.7097 0.566 50.7084V46.4524C0.566 44.451 1.098 42.9057 2.162 41.8164C3.226 40.727 4.75867 40.1824 6.76 40.1824H18.806C20.8073 40.1824 22.34 40.727 23.404 41.8164C24.468 42.9057 25 44.451 25 46.4524ZM25 31.6036V34.8336C25 35.3656 24.734 35.6316 24.202 35.6316H1.364C0.831999 35.6316 0.566 35.3656 0.566 34.8336L0.566 25.7896C0.566 23.8136 1.11067 22.2682 2.2 21.1536C3.28933 20.0389 4.822 19.4816 6.798 19.4816H9.762C12.6247 19.4816 14.5247 20.6089 15.462 22.8636H15.614L24.088 18.7976C24.696 18.5696 25 18.7849 25 19.4436V22.5216C25 22.9776 24.9493 23.3069 24.848 23.5096C24.7467 23.7122 24.5313 23.8769 24.202 24.0036L15.994 27.8036V30.3496C15.994 30.6536 16.1333 30.8056 16.412 30.8056H24.202C24.734 30.8056 25 31.0716 25 31.6036ZM12.118 30.3876V26.6636C12.118 25.8529 11.9533 25.2576 11.624 24.8776C11.2693 24.4976 10.712 24.3076 9.952 24.3076H6.988C6.20267 24.3076 5.63267 24.4976 5.278 24.8776C4.92333 25.2576 4.746 25.8529 4.746 26.6636L4.746 30.3876C4.746 30.6662 4.88533 30.8056 5.164 30.8056H11.7C11.9787 30.8056 12.118 30.6662 12.118 30.3876ZM25 1.62631V14.0523C25 14.5843 24.734 14.8503 24.202 14.8503H1.364C0.831999 14.8503 0.566 14.5843 0.566 14.0523V1.62631C0.566 1.11964 0.831999 0.866311 1.364 0.866311H3.948C4.48 0.866311 4.746 1.11964 4.746 1.62631V9.56831C4.746 9.87231 4.88533 10.0243 5.164 10.0243H10.104C10.3827 10.0243 10.522 9.87231 10.522 9.56831V3.07031C10.522 2.53831 10.788 2.27231 11.32 2.27231H13.904C14.436 2.27231 14.702 2.53831 14.702 3.07031V9.56831C14.702 9.87231 14.8413 10.0243 15.12 10.0243H20.402C20.6807 10.0243 20.82 9.87231 20.82 9.56831V1.62631C20.82 1.11964 21.086 0.866311 21.618 0.866311H24.202C24.734 0.866311 25 1.11964 25 1.62631Z" fill="black"/>
</svg>
